G04 EAGLE Gerber RS-274X export*
G75*
%MOMM*%
%FSLAX34Y34*%
%LPD*%
%INBottom Copper*%
%IPPOS*%
%AMOC8*
5,1,8,0,0,1.08239X$1,22.5*%
G01*
G04 Define Apertures*
%ADD10C,1.524000*%
%ADD11C,1.300000*%
%ADD12C,0.756400*%
%ADD13C,0.152400*%
G36*
X274867Y87152D02*
X274988Y87234D01*
X319166Y131412D01*
X319250Y131539D01*
X319278Y131682D01*
X319278Y300118D01*
X319248Y300267D01*
X319166Y300388D01*
X274988Y344566D01*
X274861Y344650D01*
X274718Y344678D01*
X-8018Y344678D01*
X-8167Y344648D01*
X-8288Y344566D01*
X-52466Y300388D01*
X-52550Y300261D01*
X-52578Y300118D01*
X-52578Y119952D01*
X-52548Y119803D01*
X-52426Y119647D01*
X-9161Y87198D01*
X-9024Y87133D01*
X-8932Y87122D01*
X274718Y87122D01*
X274867Y87152D01*
G37*
%LPC*%
G36*
X-20904Y282260D02*
X-28118Y286425D01*
X-33473Y292807D01*
X-36322Y300635D01*
X-36322Y308965D01*
X-33473Y316793D01*
X-28118Y323175D01*
X-20904Y327340D01*
X-12700Y328786D01*
X-4496Y327340D01*
X2718Y323175D01*
X8073Y316793D01*
X10922Y308965D01*
X10922Y300635D01*
X8073Y292807D01*
X2718Y286425D01*
X-4496Y282260D01*
X-12700Y280814D01*
X-20904Y282260D01*
G37*
G36*
X258496Y282260D02*
X251282Y286425D01*
X245927Y292807D01*
X243078Y300635D01*
X243078Y308965D01*
X245927Y316793D01*
X251282Y323175D01*
X258496Y327340D01*
X266700Y328786D01*
X274904Y327340D01*
X282118Y323175D01*
X287473Y316793D01*
X290322Y308965D01*
X290322Y300635D01*
X287473Y292807D01*
X282118Y286425D01*
X274904Y282260D01*
X266700Y280814D01*
X258496Y282260D01*
G37*
G36*
X80052Y161194D02*
X76944Y164302D01*
X76944Y167233D01*
X76914Y167382D01*
X76828Y167507D01*
X76700Y167588D01*
X76563Y167614D01*
X46476Y167614D01*
X46327Y167584D01*
X46206Y167502D01*
X43298Y164594D01*
X38902Y164594D01*
X35794Y167702D01*
X35794Y172098D01*
X38902Y175206D01*
X43298Y175206D01*
X46206Y172298D01*
X46333Y172214D01*
X46476Y172186D01*
X79797Y172186D01*
X80065Y171918D01*
X80192Y171834D01*
X80335Y171806D01*
X84448Y171806D01*
X87356Y168898D01*
X87483Y168814D01*
X87626Y168786D01*
X116813Y168786D01*
X116962Y168816D01*
X117087Y168902D01*
X117168Y169030D01*
X117194Y169167D01*
X117194Y172098D01*
X120302Y175206D01*
X124698Y175206D01*
X127606Y172298D01*
X127733Y172214D01*
X127876Y172186D01*
X155524Y172186D01*
X155673Y172216D01*
X155794Y172298D01*
X158702Y175206D01*
X163098Y175206D01*
X166006Y172298D01*
X166133Y172214D01*
X166276Y172186D01*
X216895Y172186D01*
X217044Y172216D01*
X217165Y172298D01*
X230775Y185908D01*
X230859Y186034D01*
X230886Y186183D01*
X230854Y186331D01*
X230766Y186455D01*
X230637Y186535D01*
X230506Y186558D01*
X229207Y186559D01*
X227031Y186559D01*
X227025Y186560D01*
X200955Y186575D01*
X200807Y186545D01*
X200682Y186460D01*
X200600Y186332D01*
X200574Y186194D01*
X200574Y185404D01*
X199352Y182455D01*
X197095Y180198D01*
X194146Y178976D01*
X190954Y178976D01*
X188005Y180198D01*
X185748Y182455D01*
X184526Y185404D01*
X184526Y186204D01*
X184496Y186353D01*
X184410Y186478D01*
X184282Y186559D01*
X184145Y186585D01*
X183155Y186586D01*
X183007Y186556D01*
X182881Y186470D01*
X182800Y186342D01*
X182774Y186205D01*
X182774Y185404D01*
X181552Y182455D01*
X179295Y180198D01*
X176346Y178976D01*
X173154Y178976D01*
X170205Y180198D01*
X167948Y182455D01*
X166726Y185404D01*
X166726Y186214D01*
X166696Y186363D01*
X166610Y186488D01*
X166482Y186570D01*
X166345Y186595D01*
X165355Y186596D01*
X165207Y186566D01*
X165081Y186480D01*
X165000Y186353D01*
X164974Y186215D01*
X164974Y185404D01*
X163752Y182455D01*
X161495Y180198D01*
X158546Y178976D01*
X155354Y178976D01*
X152405Y180198D01*
X150148Y182455D01*
X148926Y185404D01*
X148926Y186225D01*
X148896Y186373D01*
X148810Y186498D01*
X148682Y186580D01*
X148545Y186606D01*
X147555Y186606D01*
X147407Y186576D01*
X147282Y186491D01*
X147200Y186363D01*
X147174Y186225D01*
X147174Y185404D01*
X145952Y182455D01*
X143695Y180198D01*
X140746Y178976D01*
X137554Y178976D01*
X134605Y180198D01*
X132348Y182455D01*
X131126Y185404D01*
X131126Y186235D01*
X131096Y186384D01*
X131010Y186509D01*
X130882Y186590D01*
X130745Y186616D01*
X129755Y186617D01*
X129607Y186586D01*
X129481Y186501D01*
X129400Y186373D01*
X129374Y186236D01*
X129374Y185404D01*
X128152Y182455D01*
X125895Y180198D01*
X122946Y178976D01*
X119754Y178976D01*
X119038Y179273D01*
X118889Y179302D01*
X118741Y179270D01*
X118623Y179190D01*
X113547Y174114D01*
X47353Y174114D01*
X-15315Y236782D01*
X-15442Y236866D01*
X-15585Y236894D01*
X-19698Y236894D01*
X-22806Y240002D01*
X-22806Y244398D01*
X-19698Y247506D01*
X-15302Y247506D01*
X-12194Y244398D01*
X-12194Y240285D01*
X-12164Y240136D01*
X-12082Y240015D01*
X49135Y178798D01*
X49262Y178714D01*
X49405Y178686D01*
X65139Y178686D01*
X65287Y178716D01*
X65412Y178802D01*
X65494Y178930D01*
X65519Y179079D01*
X65485Y179227D01*
X65395Y179349D01*
X65284Y179419D01*
X63405Y180198D01*
X61148Y182455D01*
X59926Y185404D01*
X59926Y186276D01*
X59896Y186425D01*
X59810Y186550D01*
X59682Y186632D01*
X59545Y186657D01*
X56480Y186659D01*
X54400Y186659D01*
X52462Y187463D01*
X52462Y187463D01*
X50526Y188265D01*
X49028Y189764D01*
X47562Y191231D01*
X46758Y193174D01*
X46758Y193174D01*
X45958Y195106D01*
X45959Y197200D01*
X45959Y281131D01*
X45958Y281137D01*
X45959Y283300D01*
X45959Y285400D01*
X46763Y287338D01*
X46763Y287338D01*
X47565Y289274D01*
X49064Y290772D01*
X50531Y292238D01*
X52474Y293042D01*
X52474Y293042D01*
X54406Y293842D01*
X56493Y293841D01*
X58669Y293841D01*
X58675Y293840D01*
X67429Y293835D01*
X67429Y293835D01*
X67429Y293238D01*
X77612Y293238D01*
X77612Y303040D01*
X78648Y303040D01*
X81971Y301664D01*
X84514Y299121D01*
X85890Y295798D01*
X85890Y295735D01*
X85920Y295586D01*
X86006Y295461D01*
X86134Y295379D01*
X86283Y295354D01*
X86431Y295389D01*
X86553Y295478D01*
X86623Y295589D01*
X87848Y298545D01*
X90105Y300802D01*
X93054Y302024D01*
X96246Y302024D01*
X99195Y300802D01*
X101452Y298545D01*
X102674Y295596D01*
X102674Y294195D01*
X102704Y294046D01*
X102790Y293921D01*
X102918Y293840D01*
X103055Y293814D01*
X104045Y293813D01*
X104193Y293844D01*
X104319Y293929D01*
X104400Y294057D01*
X104426Y294194D01*
X104426Y295596D01*
X105648Y298545D01*
X107905Y300802D01*
X110854Y302024D01*
X114046Y302024D01*
X116995Y300802D01*
X119252Y298545D01*
X120474Y295596D01*
X120474Y294185D01*
X120504Y294036D01*
X120590Y293911D01*
X120718Y293829D01*
X120855Y293804D01*
X121845Y293803D01*
X121993Y293833D01*
X122119Y293919D01*
X122200Y294047D01*
X122226Y294184D01*
X122226Y295596D01*
X123064Y297620D01*
X123093Y297769D01*
X123062Y297917D01*
X122982Y298035D01*
X105315Y315702D01*
X105188Y315786D01*
X105045Y315814D01*
X54305Y315814D01*
X54156Y315784D01*
X54035Y315702D01*
X37998Y299665D01*
X37914Y299538D01*
X37886Y299395D01*
X37886Y267576D01*
X37916Y267427D01*
X37998Y267306D01*
X40906Y264398D01*
X40906Y260002D01*
X37798Y256894D01*
X33402Y256894D01*
X30294Y260002D01*
X30294Y264398D01*
X33202Y267306D01*
X33286Y267433D01*
X33314Y267576D01*
X33314Y301447D01*
X52253Y320386D01*
X211236Y320386D01*
X242791Y288831D01*
X242791Y287200D01*
X242821Y287051D01*
X242902Y286931D01*
X302915Y226918D01*
X303042Y226834D01*
X303185Y226806D01*
X307298Y226806D01*
X310406Y223698D01*
X310406Y219302D01*
X307298Y216194D01*
X302902Y216194D01*
X299994Y219102D01*
X299867Y219186D01*
X299724Y219214D01*
X270705Y219214D01*
X270556Y219184D01*
X270435Y219102D01*
X218947Y167614D01*
X166276Y167614D01*
X166127Y167584D01*
X166006Y167502D01*
X163098Y164594D01*
X158702Y164594D01*
X155794Y167502D01*
X155667Y167586D01*
X155524Y167614D01*
X127876Y167614D01*
X127727Y167584D01*
X127606Y167502D01*
X124698Y164594D01*
X120585Y164594D01*
X120436Y164564D01*
X120315Y164482D01*
X120047Y164214D01*
X87626Y164214D01*
X87477Y164184D01*
X87356Y164102D01*
X84448Y161194D01*
X80052Y161194D01*
G37*
G36*
X67810Y294762D02*
X67810Y295798D01*
X69186Y299121D01*
X71729Y301664D01*
X75052Y303040D01*
X76088Y303040D01*
X76088Y294762D01*
X67810Y294762D01*
G37*
G36*
X200096Y136101D02*
X196994Y139202D01*
X196994Y143315D01*
X196964Y143464D01*
X196882Y143585D01*
X191665Y148802D01*
X191538Y148886D01*
X191395Y148914D01*
X127876Y148914D01*
X127727Y148884D01*
X127606Y148802D01*
X124698Y145894D01*
X120585Y145894D01*
X120436Y145864D01*
X120315Y145782D01*
X118471Y143938D01*
X87626Y143938D01*
X87477Y143908D01*
X87356Y143826D01*
X84448Y140918D01*
X80052Y140918D01*
X77144Y143826D01*
X77017Y143910D01*
X76874Y143938D01*
X45129Y143938D01*
X43285Y145782D01*
X43158Y145866D01*
X43015Y145894D01*
X38902Y145894D01*
X35794Y149002D01*
X35794Y153115D01*
X35764Y153264D01*
X35682Y153385D01*
X26465Y162602D01*
X26338Y162686D01*
X26195Y162714D01*
X6876Y162714D01*
X6727Y162684D01*
X6606Y162602D01*
X3698Y159694D01*
X-698Y159694D01*
X-3806Y162802D01*
X-3806Y167198D01*
X-698Y170306D01*
X3698Y170306D01*
X6606Y167398D01*
X6733Y167314D01*
X6876Y167286D01*
X28247Y167286D01*
X38915Y156618D01*
X39042Y156534D01*
X39185Y156506D01*
X43298Y156506D01*
X46406Y153398D01*
X46406Y149285D01*
X46436Y149136D01*
X46518Y149015D01*
X46911Y148622D01*
X47038Y148538D01*
X47181Y148510D01*
X76874Y148510D01*
X77023Y148540D01*
X77144Y148622D01*
X80052Y151530D01*
X84448Y151530D01*
X87356Y148622D01*
X87483Y148538D01*
X87626Y148510D01*
X116419Y148510D01*
X116568Y148540D01*
X116689Y148622D01*
X117082Y149015D01*
X117166Y149142D01*
X117194Y149285D01*
X117194Y153398D01*
X120302Y156506D01*
X124698Y156506D01*
X127606Y153598D01*
X127733Y153514D01*
X127876Y153486D01*
X193447Y153486D01*
X200115Y146818D01*
X200242Y146734D01*
X200385Y146706D01*
X204215Y146706D01*
X204364Y146736D01*
X204485Y146818D01*
X236953Y179286D01*
X237224Y179286D01*
X237373Y179316D01*
X237494Y179398D01*
X240402Y182306D01*
X244798Y182306D01*
X247906Y179198D01*
X247906Y174802D01*
X244798Y171694D01*
X240402Y171694D01*
X238384Y173712D01*
X238258Y173796D01*
X238109Y173824D01*
X237960Y173791D01*
X237845Y173712D01*
X207718Y143585D01*
X207634Y143458D01*
X207606Y143315D01*
X207606Y139202D01*
X204498Y136094D01*
X200112Y136094D01*
X200102Y136092D01*
X200096Y136101D01*
G37*
G36*
X-20904Y104460D02*
X-28118Y108625D01*
X-33473Y115007D01*
X-36322Y122835D01*
X-36322Y131165D01*
X-33473Y138993D01*
X-28118Y145375D01*
X-20904Y149540D01*
X-12700Y150986D01*
X-4496Y149540D01*
X2718Y145375D01*
X8073Y138993D01*
X10922Y131165D01*
X10922Y122835D01*
X8073Y115007D01*
X2718Y108625D01*
X-4496Y104460D01*
X-12700Y103014D01*
X-20904Y104460D01*
G37*
G36*
X271196Y104460D02*
X263982Y108625D01*
X258627Y115007D01*
X255778Y122835D01*
X255778Y131165D01*
X258627Y138993D01*
X263982Y145375D01*
X271196Y149540D01*
X279400Y150986D01*
X287604Y149540D01*
X294818Y145375D01*
X300173Y138993D01*
X303022Y131165D01*
X303022Y122835D01*
X300173Y115007D01*
X294818Y108625D01*
X287604Y104460D01*
X279400Y103014D01*
X271196Y104460D01*
G37*
G36*
X59140Y120124D02*
X59140Y129003D01*
X60687Y132737D01*
X63545Y135595D01*
X67279Y137142D01*
X68538Y137142D01*
X68538Y120124D01*
X59140Y120124D01*
G37*
G36*
X70062Y120124D02*
X70062Y137142D01*
X71321Y137142D01*
X75055Y135595D01*
X77913Y132737D01*
X79460Y129003D01*
X79460Y120124D01*
X70062Y120124D01*
G37*
G36*
X219881Y102598D02*
X216520Y103990D01*
X213948Y106562D01*
X212556Y109923D01*
X212556Y128801D01*
X213948Y132162D01*
X216520Y134734D01*
X219881Y136126D01*
X223519Y136126D01*
X226880Y134734D01*
X229452Y132162D01*
X230844Y128801D01*
X230844Y109923D01*
X229452Y106562D01*
X226880Y103990D01*
X223519Y102598D01*
X219881Y102598D01*
G37*
G36*
X194481Y102598D02*
X191120Y103990D01*
X188548Y106562D01*
X187156Y109923D01*
X187156Y128801D01*
X188548Y132162D01*
X191120Y134734D01*
X194481Y136126D01*
X198119Y136126D01*
X199680Y135479D01*
X199829Y135450D01*
X199840Y135452D01*
X199855Y135431D01*
X199966Y135361D01*
X201480Y134734D01*
X204052Y132162D01*
X205444Y128801D01*
X205444Y109923D01*
X204052Y106562D01*
X201480Y103990D01*
X198119Y102598D01*
X194481Y102598D01*
G37*
G36*
X169081Y102598D02*
X165720Y103990D01*
X163148Y106562D01*
X161756Y109923D01*
X161756Y128801D01*
X163148Y132162D01*
X165720Y134734D01*
X169081Y136126D01*
X172719Y136126D01*
X176080Y134734D01*
X178652Y132162D01*
X180044Y128801D01*
X180044Y109923D01*
X178652Y106562D01*
X176080Y103990D01*
X172719Y102598D01*
X169081Y102598D01*
G37*
G36*
X143681Y102598D02*
X140320Y103990D01*
X137748Y106562D01*
X136356Y109923D01*
X136356Y128801D01*
X137748Y132162D01*
X140320Y134734D01*
X143681Y136126D01*
X147319Y136126D01*
X150680Y134734D01*
X153252Y132162D01*
X154644Y128801D01*
X154644Y109923D01*
X153252Y106562D01*
X150680Y103990D01*
X147319Y102598D01*
X143681Y102598D01*
G37*
G36*
X118281Y102598D02*
X114920Y103990D01*
X112348Y106562D01*
X110956Y109923D01*
X110956Y128801D01*
X112348Y132162D01*
X114920Y134734D01*
X118281Y136126D01*
X121919Y136126D01*
X125280Y134734D01*
X127852Y132162D01*
X129244Y128801D01*
X129244Y109923D01*
X127852Y106562D01*
X125280Y103990D01*
X121919Y102598D01*
X118281Y102598D01*
G37*
G36*
X92881Y102598D02*
X89520Y103990D01*
X86948Y106562D01*
X85556Y109923D01*
X85556Y128801D01*
X86948Y132162D01*
X89520Y134734D01*
X92881Y136126D01*
X96519Y136126D01*
X99880Y134734D01*
X102452Y132162D01*
X103844Y128801D01*
X103844Y109923D01*
X102452Y106562D01*
X99880Y103990D01*
X96519Y102598D01*
X92881Y102598D01*
G37*
G36*
X42081Y102598D02*
X38720Y103990D01*
X36148Y106562D01*
X34756Y109923D01*
X34756Y128801D01*
X36148Y132162D01*
X38720Y134734D01*
X42081Y136126D01*
X45719Y136126D01*
X49080Y134734D01*
X51652Y132162D01*
X53044Y128801D01*
X53044Y109923D01*
X51652Y106562D01*
X49080Y103990D01*
X45719Y102598D01*
X42081Y102598D01*
G37*
G36*
X70062Y101582D02*
X70062Y118600D01*
X79460Y118600D01*
X79460Y109721D01*
X77913Y105987D01*
X75055Y103129D01*
X71321Y101582D01*
X70062Y101582D01*
G37*
G36*
X67279Y101582D02*
X63545Y103129D01*
X60687Y105987D01*
X59140Y109721D01*
X59140Y118600D01*
X68538Y118600D01*
X68538Y101582D01*
X67279Y101582D01*
G37*
%LPD*%
D10*
X221700Y126982D02*
X221700Y111742D01*
X196300Y111742D02*
X196300Y126982D01*
X170900Y126982D02*
X170900Y111742D01*
X145500Y111742D02*
X145500Y126982D01*
X120100Y126982D02*
X120100Y111742D01*
X94700Y111742D02*
X94700Y126982D01*
X69300Y126982D02*
X69300Y111742D01*
X43900Y111742D02*
X43900Y126982D01*
D11*
X201450Y294000D03*
X183650Y294000D03*
X165850Y294000D03*
X148050Y294000D03*
X130250Y294000D03*
X112450Y294000D03*
X94650Y294000D03*
X76850Y294000D03*
X67950Y187000D03*
X85750Y187000D03*
X103550Y187000D03*
X121350Y187000D03*
X139150Y187000D03*
X156950Y187000D03*
X174750Y187000D03*
X192550Y187000D03*
D12*
X82250Y166500D03*
X41100Y169900D03*
X122500Y169900D03*
X160900Y169900D03*
D13*
X78850Y169900D02*
X41100Y169900D01*
X78850Y169900D02*
X82250Y166500D01*
X119100Y166500D01*
X122500Y169900D01*
X160900Y169900D01*
D12*
X35600Y262200D03*
D13*
X35600Y300500D01*
X53200Y318100D01*
X105600Y318100D01*
X123950Y318100D02*
X148050Y294000D01*
D12*
X305100Y221500D03*
D13*
X123950Y318100D02*
X106150Y318100D01*
X160900Y169900D02*
X218000Y169900D01*
X269600Y221500D01*
X305100Y221500D01*
X240505Y286095D01*
X210289Y318100D02*
X123950Y318100D01*
X210289Y318100D02*
X240505Y287884D01*
X240505Y286095D01*
X130250Y294000D02*
X106150Y318100D01*
X105600Y318100D01*
D12*
X82250Y146224D03*
X41100Y151200D03*
X122500Y151200D03*
X202300Y141400D03*
D13*
X46076Y146224D02*
X41100Y151200D01*
X46076Y146224D02*
X82250Y146224D01*
X117524Y146224D01*
X122500Y151200D01*
X192500Y151200D01*
X202300Y141400D01*
D12*
X1500Y165000D03*
D13*
X27300Y165000D01*
X41100Y151200D01*
D12*
X242600Y177000D03*
D13*
X237900Y177000D02*
X202300Y141400D01*
X237900Y177000D02*
X242600Y177000D01*
D12*
X152400Y339900D03*
X178200Y340100D03*
X279700Y269300D03*
X82250Y156362D03*
X-17500Y242200D03*
D13*
X121350Y187000D02*
X121350Y185150D01*
X112600Y176400D01*
X48300Y176400D01*
X-17500Y242200D01*
M02*
