G04 EAGLE Gerber RS-274X export*
G75*
%MOMM*%
%FSLAX34Y34*%
%LPD*%
%INSilkscreen Top*%
%IPPOS*%
%AMOC8*
5,1,8,0,0,1.08239X$1,22.5*%
G01*
G04 Define Apertures*
%ADD10C,0.127000*%
%ADD11C,0.200000*%
%ADD12C,0.152400*%
G36*
X270740Y233307D02*
X271208Y233341D01*
X271659Y233397D01*
X272094Y233475D01*
X272512Y233575D01*
X272914Y233698D01*
X273299Y233843D01*
X273667Y234010D01*
X274017Y234199D01*
X274346Y234408D01*
X274654Y234637D01*
X274942Y234886D01*
X275208Y235156D01*
X275454Y235445D01*
X275679Y235756D01*
X275883Y236086D01*
X276065Y236434D01*
X276222Y236798D01*
X276355Y237178D01*
X276464Y237574D01*
X276549Y237985D01*
X276610Y238412D01*
X276646Y238855D01*
X276658Y239313D01*
X276645Y239762D01*
X276606Y240197D01*
X276541Y240618D01*
X276450Y241025D01*
X276333Y241418D01*
X276190Y241797D01*
X276021Y242163D01*
X275826Y242515D01*
X275606Y242850D01*
X275362Y243166D01*
X275095Y243462D01*
X274804Y243740D01*
X274488Y243998D01*
X274149Y244237D01*
X273787Y244456D01*
X273400Y244656D01*
X272717Y243290D01*
X273028Y243122D01*
X273318Y242943D01*
X273589Y242755D01*
X273840Y242557D01*
X274070Y242348D01*
X274281Y242130D01*
X274471Y241901D01*
X274642Y241663D01*
X274792Y241414D01*
X274922Y241156D01*
X275032Y240887D01*
X275123Y240608D01*
X275193Y240319D01*
X275243Y240020D01*
X275273Y239711D01*
X275283Y239392D01*
X275262Y238900D01*
X275197Y238433D01*
X275089Y237992D01*
X274938Y237578D01*
X274744Y237190D01*
X274507Y236828D01*
X274227Y236492D01*
X273904Y236182D01*
X273545Y235904D01*
X273158Y235663D01*
X272744Y235459D01*
X272302Y235292D01*
X271832Y235162D01*
X271334Y235070D01*
X270809Y235014D01*
X270256Y234995D01*
X269697Y235013D01*
X269169Y235067D01*
X268672Y235156D01*
X268205Y235280D01*
X267769Y235440D01*
X267363Y235636D01*
X266988Y235867D01*
X266643Y236134D01*
X266334Y236433D01*
X266066Y236760D01*
X265840Y237116D01*
X265654Y237500D01*
X265510Y237913D01*
X265407Y238354D01*
X265345Y238824D01*
X265325Y239322D01*
X265334Y239643D01*
X265360Y239953D01*
X265405Y240251D01*
X265467Y240539D01*
X265547Y240815D01*
X265645Y241080D01*
X265761Y241334D01*
X265894Y241577D01*
X266044Y241807D01*
X266210Y242020D01*
X266392Y242217D01*
X266590Y242398D01*
X266804Y242562D01*
X267034Y242710D01*
X267279Y242842D01*
X267541Y242957D01*
X267015Y244542D01*
X266648Y244376D01*
X266304Y244188D01*
X265983Y243977D01*
X265686Y243745D01*
X265412Y243491D01*
X265161Y243215D01*
X264933Y242918D01*
X264729Y242598D01*
X264548Y242257D01*
X264392Y241896D01*
X264259Y241515D01*
X264151Y241113D01*
X264067Y240692D01*
X264006Y240249D01*
X263970Y239787D01*
X263958Y239305D01*
X263965Y238957D01*
X263984Y238619D01*
X264017Y238290D01*
X264063Y237971D01*
X264122Y237662D01*
X264194Y237362D01*
X264279Y237072D01*
X264377Y236791D01*
X264488Y236520D01*
X264612Y236258D01*
X264749Y236006D01*
X264899Y235764D01*
X265239Y235308D01*
X265631Y234890D01*
X266069Y234517D01*
X266548Y234193D01*
X267066Y233919D01*
X267340Y233801D01*
X267624Y233695D01*
X267918Y233601D01*
X268222Y233520D01*
X268536Y233452D01*
X268860Y233396D01*
X269194Y233352D01*
X269538Y233321D01*
X269892Y233303D01*
X270256Y233296D01*
X270740Y233307D01*
G37*
G36*
X276483Y254423D02*
X275143Y254423D01*
X275143Y251419D01*
X264142Y251419D01*
X264142Y249965D01*
X266148Y247048D01*
X267637Y247048D01*
X265649Y249834D01*
X275143Y249834D01*
X275143Y246689D01*
X276483Y246689D01*
X276483Y254423D01*
G37*
G36*
X242740Y233307D02*
X243208Y233341D01*
X243659Y233397D01*
X244094Y233475D01*
X244512Y233575D01*
X244914Y233698D01*
X245299Y233843D01*
X245667Y234010D01*
X246017Y234199D01*
X246346Y234408D01*
X246654Y234637D01*
X246942Y234886D01*
X247208Y235156D01*
X247454Y235445D01*
X247679Y235756D01*
X247883Y236086D01*
X248065Y236434D01*
X248222Y236798D01*
X248355Y237178D01*
X248464Y237574D01*
X248549Y237985D01*
X248610Y238412D01*
X248646Y238855D01*
X248658Y239313D01*
X248645Y239762D01*
X248606Y240197D01*
X248541Y240618D01*
X248450Y241025D01*
X248333Y241418D01*
X248190Y241797D01*
X248021Y242163D01*
X247826Y242515D01*
X247606Y242850D01*
X247362Y243166D01*
X247095Y243462D01*
X246804Y243740D01*
X246488Y243998D01*
X246149Y244237D01*
X245787Y244456D01*
X245400Y244656D01*
X244717Y243290D01*
X245028Y243122D01*
X245318Y242943D01*
X245589Y242755D01*
X245840Y242557D01*
X246070Y242348D01*
X246281Y242130D01*
X246471Y241901D01*
X246642Y241663D01*
X246792Y241414D01*
X246922Y241156D01*
X247032Y240887D01*
X247123Y240608D01*
X247193Y240319D01*
X247243Y240020D01*
X247273Y239711D01*
X247283Y239392D01*
X247262Y238900D01*
X247197Y238433D01*
X247089Y237992D01*
X246938Y237578D01*
X246744Y237190D01*
X246507Y236828D01*
X246227Y236492D01*
X245904Y236182D01*
X245545Y235904D01*
X245158Y235663D01*
X244744Y235459D01*
X244302Y235292D01*
X243832Y235162D01*
X243334Y235070D01*
X242809Y235014D01*
X242256Y234995D01*
X241697Y235013D01*
X241169Y235067D01*
X240672Y235156D01*
X240205Y235280D01*
X239769Y235440D01*
X239363Y235636D01*
X238988Y235867D01*
X238643Y236134D01*
X238334Y236433D01*
X238066Y236760D01*
X237840Y237116D01*
X237654Y237500D01*
X237510Y237913D01*
X237407Y238354D01*
X237345Y238824D01*
X237325Y239322D01*
X237334Y239643D01*
X237360Y239953D01*
X237405Y240251D01*
X237467Y240539D01*
X237547Y240815D01*
X237645Y241080D01*
X237761Y241334D01*
X237894Y241577D01*
X238044Y241807D01*
X238210Y242020D01*
X238392Y242217D01*
X238590Y242398D01*
X238804Y242562D01*
X239034Y242710D01*
X239279Y242842D01*
X239541Y242957D01*
X239015Y244542D01*
X238648Y244376D01*
X238304Y244188D01*
X237983Y243977D01*
X237686Y243745D01*
X237412Y243491D01*
X237161Y243215D01*
X236933Y242918D01*
X236729Y242598D01*
X236548Y242257D01*
X236392Y241896D01*
X236259Y241515D01*
X236151Y241113D01*
X236067Y240692D01*
X236006Y240249D01*
X235970Y239787D01*
X235958Y239305D01*
X235965Y238957D01*
X235984Y238619D01*
X236017Y238290D01*
X236063Y237971D01*
X236122Y237662D01*
X236194Y237362D01*
X236279Y237072D01*
X236377Y236791D01*
X236488Y236520D01*
X236612Y236258D01*
X236749Y236006D01*
X236899Y235764D01*
X237239Y235308D01*
X237631Y234890D01*
X238069Y234517D01*
X238548Y234193D01*
X239066Y233919D01*
X239340Y233801D01*
X239624Y233695D01*
X239918Y233601D01*
X240222Y233520D01*
X240536Y233452D01*
X240860Y233396D01*
X241194Y233352D01*
X241538Y233321D01*
X241892Y233303D01*
X242256Y233296D01*
X242740Y233307D01*
G37*
G36*
X248483Y254397D02*
X247143Y254397D01*
X247143Y247959D01*
X246833Y248111D01*
X246518Y248305D01*
X246196Y248541D01*
X245869Y248818D01*
X245528Y249141D01*
X245167Y249516D01*
X244786Y249942D01*
X244384Y250420D01*
X243688Y251262D01*
X243090Y251955D01*
X242589Y252501D01*
X242186Y252899D01*
X241831Y253203D01*
X241476Y253467D01*
X241121Y253691D01*
X240767Y253876D01*
X240411Y254019D01*
X240055Y254122D01*
X239698Y254184D01*
X239339Y254204D01*
X238946Y254188D01*
X238575Y254141D01*
X238228Y254063D01*
X237904Y253953D01*
X237603Y253812D01*
X237325Y253640D01*
X237070Y253436D01*
X236839Y253201D01*
X236632Y252937D01*
X236453Y252646D01*
X236302Y252328D01*
X236178Y251983D01*
X236082Y251611D01*
X236013Y251212D01*
X235972Y250786D01*
X235958Y250333D01*
X235972Y249918D01*
X236013Y249522D01*
X236081Y249145D01*
X236177Y248788D01*
X236300Y248450D01*
X236451Y248131D01*
X236629Y247832D01*
X236834Y247552D01*
X237063Y247296D01*
X237310Y247068D01*
X237576Y246868D01*
X237861Y246697D01*
X238165Y246554D01*
X238488Y246439D01*
X238830Y246353D01*
X239190Y246295D01*
X239339Y247907D01*
X239099Y247944D01*
X238872Y247997D01*
X238659Y248068D01*
X238460Y248155D01*
X238275Y248259D01*
X238103Y248380D01*
X237946Y248518D01*
X237802Y248673D01*
X237674Y248842D01*
X237562Y249021D01*
X237468Y249212D01*
X237391Y249414D01*
X237332Y249627D01*
X237289Y249851D01*
X237263Y250087D01*
X237255Y250333D01*
X237263Y250590D01*
X237290Y250834D01*
X237333Y251062D01*
X237395Y251277D01*
X237474Y251476D01*
X237570Y251661D01*
X237684Y251832D01*
X237815Y251988D01*
X237962Y252128D01*
X238124Y252249D01*
X238300Y252351D01*
X238490Y252435D01*
X238694Y252500D01*
X238912Y252547D01*
X239145Y252574D01*
X239392Y252584D01*
X239758Y252562D01*
X240105Y252497D01*
X240433Y252389D01*
X240740Y252238D01*
X241035Y252051D01*
X241323Y251838D01*
X241604Y251598D01*
X241879Y251331D01*
X242422Y250737D01*
X242965Y250074D01*
X243531Y249375D01*
X244143Y248669D01*
X244470Y248318D01*
X244815Y247976D01*
X245179Y247641D01*
X245562Y247315D01*
X245969Y247006D01*
X246406Y246721D01*
X246873Y246461D01*
X247371Y246225D01*
X248483Y246225D01*
X248483Y254397D01*
G37*
G36*
X130140Y308157D02*
X130608Y308191D01*
X131059Y308247D01*
X131494Y308325D01*
X131912Y308425D01*
X132314Y308548D01*
X132699Y308693D01*
X133067Y308860D01*
X133417Y309049D01*
X133746Y309258D01*
X134054Y309487D01*
X134342Y309736D01*
X134608Y310006D01*
X134854Y310295D01*
X135079Y310606D01*
X135283Y310936D01*
X135465Y311284D01*
X135622Y311648D01*
X135755Y312028D01*
X135864Y312424D01*
X135949Y312835D01*
X136010Y313262D01*
X136046Y313705D01*
X136058Y314163D01*
X136045Y314612D01*
X136006Y315047D01*
X135941Y315468D01*
X135850Y315875D01*
X135733Y316268D01*
X135590Y316647D01*
X135421Y317013D01*
X135226Y317365D01*
X135006Y317700D01*
X134762Y318016D01*
X134495Y318312D01*
X134204Y318590D01*
X133888Y318848D01*
X133549Y319087D01*
X133187Y319306D01*
X132800Y319506D01*
X132117Y318140D01*
X132428Y317972D01*
X132718Y317793D01*
X132989Y317605D01*
X133240Y317407D01*
X133470Y317198D01*
X133681Y316980D01*
X133871Y316751D01*
X134042Y316513D01*
X134192Y316264D01*
X134322Y316006D01*
X134432Y315737D01*
X134523Y315458D01*
X134593Y315169D01*
X134643Y314870D01*
X134673Y314561D01*
X134683Y314242D01*
X134662Y313750D01*
X134597Y313283D01*
X134489Y312842D01*
X134338Y312428D01*
X134144Y312040D01*
X133907Y311678D01*
X133627Y311342D01*
X133304Y311032D01*
X132945Y310754D01*
X132558Y310513D01*
X132144Y310309D01*
X131702Y310142D01*
X131232Y310012D01*
X130734Y309920D01*
X130209Y309864D01*
X129656Y309845D01*
X129097Y309863D01*
X128569Y309917D01*
X128072Y310006D01*
X127605Y310130D01*
X127169Y310290D01*
X126763Y310486D01*
X126388Y310717D01*
X126043Y310984D01*
X125734Y311283D01*
X125466Y311610D01*
X125240Y311966D01*
X125054Y312350D01*
X124910Y312763D01*
X124807Y313204D01*
X124745Y313674D01*
X124725Y314172D01*
X124734Y314493D01*
X124760Y314803D01*
X124805Y315101D01*
X124867Y315389D01*
X124947Y315665D01*
X125045Y315930D01*
X125161Y316184D01*
X125294Y316427D01*
X125444Y316657D01*
X125610Y316870D01*
X125792Y317067D01*
X125990Y317248D01*
X126204Y317412D01*
X126434Y317560D01*
X126679Y317692D01*
X126941Y317807D01*
X126415Y319392D01*
X126048Y319226D01*
X125704Y319038D01*
X125383Y318827D01*
X125086Y318595D01*
X124812Y318341D01*
X124561Y318065D01*
X124333Y317768D01*
X124129Y317448D01*
X123948Y317107D01*
X123792Y316746D01*
X123659Y316365D01*
X123551Y315963D01*
X123467Y315542D01*
X123406Y315099D01*
X123370Y314637D01*
X123358Y314155D01*
X123365Y313807D01*
X123384Y313469D01*
X123417Y313140D01*
X123463Y312821D01*
X123522Y312512D01*
X123594Y312212D01*
X123679Y311922D01*
X123777Y311641D01*
X123888Y311370D01*
X124012Y311108D01*
X124149Y310856D01*
X124299Y310614D01*
X124639Y310158D01*
X125031Y309740D01*
X125469Y309367D01*
X125948Y309043D01*
X126466Y308769D01*
X126740Y308651D01*
X127024Y308545D01*
X127318Y308451D01*
X127622Y308370D01*
X127936Y308302D01*
X128260Y308246D01*
X128594Y308202D01*
X128938Y308171D01*
X129292Y308153D01*
X129656Y308146D01*
X130140Y308157D01*
G37*
G36*
X133114Y320923D02*
X133489Y321018D01*
X133840Y321141D01*
X134165Y321293D01*
X134465Y321473D01*
X134740Y321681D01*
X134989Y321918D01*
X135213Y322183D01*
X135411Y322474D01*
X135583Y322789D01*
X135728Y323127D01*
X135847Y323489D01*
X135939Y323875D01*
X136005Y324284D01*
X136045Y324717D01*
X136058Y325174D01*
X136044Y325663D01*
X136000Y326123D01*
X135926Y326554D01*
X135824Y326956D01*
X135692Y327329D01*
X135531Y327674D01*
X135341Y327989D01*
X135121Y328275D01*
X134875Y328529D01*
X134604Y328750D01*
X134310Y328936D01*
X133991Y329089D01*
X133649Y329208D01*
X133282Y329293D01*
X132891Y329344D01*
X132476Y329361D01*
X132187Y329349D01*
X131910Y329312D01*
X131646Y329252D01*
X131394Y329168D01*
X131155Y329060D01*
X130929Y328927D01*
X130715Y328771D01*
X130514Y328590D01*
X130329Y328388D01*
X130164Y328166D01*
X130018Y327926D01*
X129892Y327666D01*
X129786Y327387D01*
X129699Y327089D01*
X129633Y326772D01*
X129586Y326435D01*
X129551Y326435D01*
X129477Y326741D01*
X129389Y327028D01*
X129286Y327297D01*
X129169Y327547D01*
X129036Y327777D01*
X128888Y327990D01*
X128725Y328183D01*
X128548Y328358D01*
X128356Y328513D01*
X128150Y328647D01*
X127930Y328761D01*
X127697Y328854D01*
X127450Y328926D01*
X127189Y328978D01*
X126914Y329009D01*
X126625Y329019D01*
X126250Y329003D01*
X125897Y328955D01*
X125565Y328874D01*
X125253Y328762D01*
X124964Y328617D01*
X124695Y328440D01*
X124447Y328231D01*
X124221Y327990D01*
X124019Y327720D01*
X123844Y327424D01*
X123695Y327102D01*
X123574Y326754D01*
X123480Y326380D01*
X123412Y325981D01*
X123372Y325555D01*
X123358Y325104D01*
X123372Y324689D01*
X123411Y324293D01*
X123478Y323916D01*
X123571Y323559D01*
X123690Y323221D01*
X123836Y322903D01*
X124009Y322603D01*
X124208Y322323D01*
X124431Y322067D01*
X124674Y321839D01*
X124939Y321639D01*
X125224Y321468D01*
X125530Y321325D01*
X125857Y321211D01*
X126204Y321124D01*
X126573Y321066D01*
X126695Y322652D01*
X126459Y322686D01*
X126237Y322738D01*
X126028Y322806D01*
X125833Y322891D01*
X125651Y322993D01*
X125483Y323112D01*
X125329Y323248D01*
X125189Y323400D01*
X125064Y323568D01*
X124955Y323747D01*
X124863Y323939D01*
X124788Y324144D01*
X124730Y324361D01*
X124688Y324590D01*
X124663Y324832D01*
X124655Y325086D01*
X124664Y325364D01*
X124690Y325625D01*
X124735Y325868D01*
X124798Y326093D01*
X124879Y326300D01*
X124977Y326490D01*
X125094Y326662D01*
X125228Y326816D01*
X125378Y326953D01*
X125541Y327071D01*
X125717Y327171D01*
X125906Y327253D01*
X126108Y327317D01*
X126323Y327362D01*
X126551Y327390D01*
X126792Y327399D01*
X127035Y327388D01*
X127264Y327354D01*
X127480Y327298D01*
X127682Y327220D01*
X127870Y327120D01*
X128046Y326997D01*
X128207Y326852D01*
X128355Y326685D01*
X128487Y326497D01*
X128602Y326292D01*
X128699Y326068D01*
X128779Y325825D01*
X128841Y325565D01*
X128885Y325287D01*
X128911Y324990D01*
X128920Y324675D01*
X128920Y323816D01*
X130286Y323816D01*
X130286Y324710D01*
X130295Y325065D01*
X130322Y325398D01*
X130366Y325710D01*
X130428Y326001D01*
X130507Y326270D01*
X130604Y326517D01*
X130719Y326743D01*
X130851Y326948D01*
X130999Y327129D01*
X131161Y327287D01*
X131337Y327420D01*
X131527Y327529D01*
X131730Y327614D01*
X131947Y327674D01*
X132179Y327711D01*
X132423Y327723D01*
X132704Y327712D01*
X132966Y327680D01*
X133210Y327627D01*
X133437Y327553D01*
X133646Y327458D01*
X133837Y327341D01*
X134011Y327203D01*
X134166Y327044D01*
X134304Y326866D01*
X134423Y326673D01*
X134524Y326463D01*
X134606Y326237D01*
X134671Y325995D01*
X134717Y325738D01*
X134744Y325464D01*
X134753Y325174D01*
X134745Y324885D01*
X134719Y324613D01*
X134676Y324356D01*
X134616Y324116D01*
X134539Y323892D01*
X134445Y323683D01*
X134334Y323491D01*
X134206Y323315D01*
X134060Y323155D01*
X133898Y323011D01*
X133718Y322883D01*
X133522Y322771D01*
X133308Y322676D01*
X133077Y322596D01*
X132829Y322533D01*
X132564Y322485D01*
X132712Y320856D01*
X133114Y320923D01*
G37*
G36*
X158189Y326400D02*
X160983Y326400D01*
X160983Y327889D01*
X158189Y327889D01*
X158189Y329623D01*
X156945Y329623D01*
X156945Y327889D01*
X148642Y327889D01*
X148642Y326234D01*
X156963Y320585D01*
X158189Y320585D01*
X158189Y326400D01*
G37*
G36*
X155240Y308157D02*
X155708Y308191D01*
X156159Y308247D01*
X156594Y308325D01*
X157012Y308425D01*
X157414Y308548D01*
X157799Y308693D01*
X158167Y308860D01*
X158517Y309049D01*
X158846Y309258D01*
X159154Y309487D01*
X159442Y309736D01*
X159708Y310006D01*
X159954Y310295D01*
X160179Y310606D01*
X160383Y310936D01*
X160565Y311284D01*
X160722Y311648D01*
X160855Y312028D01*
X160964Y312424D01*
X161049Y312835D01*
X161110Y313262D01*
X161146Y313705D01*
X161158Y314163D01*
X161145Y314612D01*
X161106Y315047D01*
X161041Y315468D01*
X160950Y315875D01*
X160833Y316268D01*
X160690Y316647D01*
X160521Y317013D01*
X160326Y317365D01*
X160106Y317700D01*
X159862Y318016D01*
X159595Y318312D01*
X159304Y318590D01*
X158988Y318848D01*
X158649Y319087D01*
X158287Y319306D01*
X157900Y319506D01*
X157217Y318140D01*
X157528Y317972D01*
X157818Y317793D01*
X158089Y317605D01*
X158340Y317407D01*
X158570Y317198D01*
X158781Y316980D01*
X158971Y316751D01*
X159142Y316513D01*
X159292Y316264D01*
X159422Y316006D01*
X159532Y315737D01*
X159623Y315458D01*
X159693Y315169D01*
X159743Y314870D01*
X159773Y314561D01*
X159783Y314242D01*
X159762Y313750D01*
X159697Y313283D01*
X159589Y312842D01*
X159438Y312428D01*
X159244Y312040D01*
X159007Y311678D01*
X158727Y311342D01*
X158404Y311032D01*
X158045Y310754D01*
X157658Y310513D01*
X157244Y310309D01*
X156802Y310142D01*
X156332Y310012D01*
X155834Y309920D01*
X155309Y309864D01*
X154756Y309845D01*
X154197Y309863D01*
X153669Y309917D01*
X153172Y310006D01*
X152705Y310130D01*
X152269Y310290D01*
X151863Y310486D01*
X151488Y310717D01*
X151143Y310984D01*
X150834Y311283D01*
X150566Y311610D01*
X150340Y311966D01*
X150154Y312350D01*
X150010Y312763D01*
X149907Y313204D01*
X149845Y313674D01*
X149825Y314172D01*
X149834Y314493D01*
X149860Y314803D01*
X149905Y315101D01*
X149967Y315389D01*
X150047Y315665D01*
X150145Y315930D01*
X150261Y316184D01*
X150394Y316427D01*
X150544Y316657D01*
X150710Y316870D01*
X150892Y317067D01*
X151090Y317248D01*
X151304Y317412D01*
X151534Y317560D01*
X151779Y317692D01*
X152041Y317807D01*
X151515Y319392D01*
X151148Y319226D01*
X150804Y319038D01*
X150483Y318827D01*
X150186Y318595D01*
X149912Y318341D01*
X149661Y318065D01*
X149433Y317768D01*
X149229Y317448D01*
X149048Y317107D01*
X148892Y316746D01*
X148759Y316365D01*
X148651Y315963D01*
X148567Y315542D01*
X148506Y315099D01*
X148470Y314637D01*
X148458Y314155D01*
X148465Y313807D01*
X148484Y313469D01*
X148517Y313140D01*
X148563Y312821D01*
X148622Y312512D01*
X148694Y312212D01*
X148779Y311922D01*
X148877Y311641D01*
X148988Y311370D01*
X149112Y311108D01*
X149249Y310856D01*
X149399Y310614D01*
X149739Y310158D01*
X150131Y309740D01*
X150569Y309367D01*
X151048Y309043D01*
X151566Y308769D01*
X151840Y308651D01*
X152124Y308545D01*
X152418Y308451D01*
X152722Y308370D01*
X153036Y308302D01*
X153360Y308246D01*
X153694Y308202D01*
X154038Y308171D01*
X154392Y308153D01*
X154756Y308146D01*
X155240Y308157D01*
G37*
%LPC*%
G36*
X156770Y322179D02*
X156122Y322652D01*
X151462Y325813D01*
X150884Y326155D01*
X150420Y326400D01*
X156945Y326400D01*
X156945Y322038D01*
X156770Y322179D01*
G37*
%LPD*%
G36*
X102807Y151835D02*
X103275Y151869D01*
X103726Y151925D01*
X104161Y152003D01*
X104579Y152103D01*
X104981Y152226D01*
X105366Y152371D01*
X105734Y152538D01*
X106084Y152727D01*
X106413Y152936D01*
X106721Y153165D01*
X107009Y153414D01*
X107275Y153684D01*
X107521Y153973D01*
X107746Y154284D01*
X107950Y154614D01*
X108132Y154962D01*
X108289Y155326D01*
X108422Y155706D01*
X108531Y156102D01*
X108616Y156513D01*
X108677Y156940D01*
X108713Y157383D01*
X108725Y157841D01*
X108712Y158290D01*
X108673Y158725D01*
X108608Y159146D01*
X108517Y159553D01*
X108400Y159946D01*
X108257Y160325D01*
X108088Y160691D01*
X107893Y161043D01*
X107673Y161378D01*
X107429Y161694D01*
X107162Y161990D01*
X106871Y162268D01*
X106555Y162526D01*
X106216Y162765D01*
X105854Y162984D01*
X105467Y163184D01*
X104784Y161818D01*
X105095Y161650D01*
X105385Y161471D01*
X105656Y161283D01*
X105907Y161085D01*
X106137Y160876D01*
X106348Y160658D01*
X106538Y160429D01*
X106709Y160191D01*
X106859Y159942D01*
X106989Y159684D01*
X107099Y159415D01*
X107190Y159136D01*
X107260Y158847D01*
X107310Y158548D01*
X107340Y158239D01*
X107350Y157920D01*
X107329Y157428D01*
X107264Y156961D01*
X107156Y156520D01*
X107005Y156106D01*
X106811Y155718D01*
X106574Y155356D01*
X106294Y155020D01*
X105971Y154710D01*
X105612Y154432D01*
X105225Y154191D01*
X104811Y153987D01*
X104369Y153820D01*
X103899Y153690D01*
X103401Y153598D01*
X102876Y153542D01*
X102323Y153523D01*
X101764Y153541D01*
X101236Y153595D01*
X100739Y153684D01*
X100272Y153808D01*
X99836Y153968D01*
X99430Y154164D01*
X99055Y154395D01*
X98710Y154662D01*
X98401Y154961D01*
X98133Y155288D01*
X97907Y155644D01*
X97721Y156028D01*
X97577Y156441D01*
X97474Y156882D01*
X97412Y157352D01*
X97392Y157850D01*
X97401Y158171D01*
X97427Y158481D01*
X97472Y158779D01*
X97534Y159067D01*
X97614Y159343D01*
X97712Y159608D01*
X97828Y159862D01*
X97961Y160106D01*
X98111Y160335D01*
X98277Y160548D01*
X98459Y160745D01*
X98657Y160926D01*
X98871Y161090D01*
X99101Y161238D01*
X99346Y161370D01*
X99608Y161485D01*
X99082Y163070D01*
X98715Y162904D01*
X98371Y162716D01*
X98050Y162505D01*
X97753Y162273D01*
X97479Y162019D01*
X97228Y161743D01*
X97000Y161446D01*
X96796Y161126D01*
X96615Y160785D01*
X96459Y160424D01*
X96326Y160043D01*
X96218Y159641D01*
X96134Y159220D01*
X96073Y158778D01*
X96037Y158315D01*
X96025Y157833D01*
X96032Y157485D01*
X96051Y157147D01*
X96084Y156818D01*
X96130Y156499D01*
X96189Y156190D01*
X96261Y155890D01*
X96346Y155600D01*
X96444Y155319D01*
X96555Y155048D01*
X96679Y154786D01*
X96816Y154534D01*
X96966Y154292D01*
X97306Y153836D01*
X97698Y153418D01*
X98136Y153045D01*
X98615Y152721D01*
X99133Y152447D01*
X99407Y152329D01*
X99691Y152223D01*
X99985Y152129D01*
X100289Y152048D01*
X100603Y151980D01*
X100927Y151924D01*
X101261Y151880D01*
X101605Y151849D01*
X101959Y151831D01*
X102323Y151824D01*
X102807Y151835D01*
G37*
G36*
X108550Y172951D02*
X107210Y172951D01*
X107210Y169947D01*
X96209Y169947D01*
X96209Y168493D01*
X98215Y165576D01*
X99704Y165576D01*
X97716Y168362D01*
X107210Y168362D01*
X107210Y165217D01*
X108550Y165217D01*
X108550Y172951D01*
G37*
G36*
X108550Y149273D02*
X96209Y149273D01*
X96209Y147600D01*
X108550Y147600D01*
X108550Y149273D01*
G37*
G36*
X277289Y191788D02*
X277724Y191827D01*
X278145Y191892D01*
X278552Y191983D01*
X278945Y192100D01*
X279324Y192243D01*
X279690Y192412D01*
X280042Y192607D01*
X280377Y192827D01*
X280693Y193071D01*
X280989Y193338D01*
X281267Y193629D01*
X281525Y193945D01*
X281764Y194284D01*
X281983Y194646D01*
X282183Y195033D01*
X280817Y195716D01*
X280649Y195405D01*
X280470Y195115D01*
X280282Y194844D01*
X280084Y194593D01*
X279875Y194363D01*
X279657Y194152D01*
X279429Y193962D01*
X279190Y193791D01*
X278941Y193641D01*
X278683Y193511D01*
X278414Y193401D01*
X278135Y193310D01*
X277846Y193240D01*
X277547Y193190D01*
X277238Y193160D01*
X276919Y193150D01*
X276427Y193171D01*
X275960Y193236D01*
X275520Y193344D01*
X275105Y193495D01*
X274717Y193689D01*
X274355Y193926D01*
X274019Y194206D01*
X273709Y194529D01*
X273431Y194888D01*
X273190Y195275D01*
X272986Y195689D01*
X272819Y196131D01*
X272689Y196601D01*
X272597Y197099D01*
X272541Y197624D01*
X272523Y198177D01*
X272540Y198736D01*
X272594Y199264D01*
X272683Y199761D01*
X272807Y200228D01*
X272967Y200664D01*
X273163Y201070D01*
X273394Y201445D01*
X273661Y201790D01*
X273960Y202099D01*
X274287Y202367D01*
X274643Y202593D01*
X275027Y202779D01*
X275440Y202923D01*
X275881Y203026D01*
X276351Y203088D01*
X276849Y203108D01*
X277170Y203099D01*
X277480Y203073D01*
X277778Y203028D01*
X278066Y202966D01*
X278342Y202886D01*
X278607Y202788D01*
X278861Y202673D01*
X279105Y202539D01*
X279334Y202389D01*
X279547Y202223D01*
X279744Y202041D01*
X279925Y201843D01*
X280089Y201629D01*
X280237Y201399D01*
X280369Y201154D01*
X280484Y200892D01*
X282069Y201418D01*
X281903Y201785D01*
X281715Y202129D01*
X281504Y202450D01*
X281272Y202747D01*
X281018Y203021D01*
X280742Y203272D01*
X280445Y203500D01*
X280125Y203704D01*
X279784Y203885D01*
X279423Y204041D01*
X279042Y204174D01*
X278640Y204282D01*
X278219Y204366D01*
X277777Y204427D01*
X277314Y204463D01*
X276832Y204475D01*
X276484Y204468D01*
X276146Y204449D01*
X275817Y204416D01*
X275498Y204370D01*
X275189Y204311D01*
X274889Y204239D01*
X274599Y204155D01*
X274318Y204056D01*
X274047Y203945D01*
X273785Y203821D01*
X273533Y203684D01*
X273291Y203534D01*
X272835Y203194D01*
X272417Y202802D01*
X272044Y202364D01*
X271720Y201885D01*
X271446Y201367D01*
X271328Y201093D01*
X271222Y200809D01*
X271128Y200515D01*
X271048Y200211D01*
X270979Y199897D01*
X270923Y199573D01*
X270879Y199239D01*
X270848Y198895D01*
X270830Y198541D01*
X270823Y198177D01*
X270835Y197693D01*
X270868Y197225D01*
X270924Y196774D01*
X271002Y196339D01*
X271102Y195921D01*
X271225Y195519D01*
X271370Y195134D01*
X271537Y194766D01*
X271726Y194416D01*
X271935Y194087D01*
X272164Y193779D01*
X272413Y193492D01*
X272683Y193225D01*
X272972Y192979D01*
X273283Y192754D01*
X273613Y192550D01*
X273961Y192368D01*
X274325Y192211D01*
X274705Y192078D01*
X275101Y191969D01*
X275512Y191884D01*
X275939Y191823D01*
X276382Y191787D01*
X276840Y191775D01*
X277289Y191788D01*
G37*
G36*
X291924Y193290D02*
X285486Y193290D01*
X285638Y193600D01*
X285832Y193915D01*
X286068Y194237D01*
X286345Y194564D01*
X286668Y194905D01*
X287043Y195266D01*
X287470Y195647D01*
X287947Y196049D01*
X288789Y196745D01*
X289482Y197343D01*
X290028Y197844D01*
X290426Y198247D01*
X290730Y198602D01*
X290994Y198957D01*
X291218Y199312D01*
X291403Y199666D01*
X291546Y200022D01*
X291649Y200378D01*
X291711Y200735D01*
X291731Y201094D01*
X291715Y201487D01*
X291668Y201858D01*
X291590Y202205D01*
X291480Y202529D01*
X291339Y202830D01*
X291167Y203108D01*
X290963Y203363D01*
X290728Y203594D01*
X290464Y203801D01*
X290173Y203980D01*
X289855Y204131D01*
X289510Y204255D01*
X289138Y204351D01*
X288739Y204420D01*
X288313Y204461D01*
X287860Y204475D01*
X287445Y204461D01*
X287049Y204420D01*
X286672Y204352D01*
X286315Y204256D01*
X285977Y204133D01*
X285658Y203982D01*
X285359Y203804D01*
X285079Y203599D01*
X284823Y203370D01*
X284595Y203123D01*
X284395Y202857D01*
X284224Y202572D01*
X284081Y202268D01*
X283966Y201945D01*
X283880Y201603D01*
X283822Y201243D01*
X285434Y201094D01*
X285471Y201334D01*
X285524Y201561D01*
X285595Y201774D01*
X285682Y201973D01*
X285786Y202158D01*
X285908Y202330D01*
X286045Y202487D01*
X286200Y202631D01*
X286369Y202759D01*
X286549Y202871D01*
X286739Y202965D01*
X286941Y203042D01*
X287154Y203101D01*
X287378Y203144D01*
X287614Y203170D01*
X287860Y203178D01*
X288118Y203170D01*
X288361Y203143D01*
X288589Y203100D01*
X288804Y203038D01*
X289003Y202959D01*
X289188Y202863D01*
X289359Y202749D01*
X289515Y202618D01*
X289655Y202471D01*
X289776Y202309D01*
X289878Y202133D01*
X289962Y201943D01*
X290027Y201739D01*
X290074Y201521D01*
X290101Y201288D01*
X290111Y201041D01*
X290089Y200675D01*
X290024Y200328D01*
X289916Y200000D01*
X289765Y199693D01*
X289578Y199398D01*
X289365Y199110D01*
X289125Y198829D01*
X288858Y198554D01*
X288264Y198011D01*
X287601Y197468D01*
X286902Y196902D01*
X286196Y196290D01*
X285845Y195963D01*
X285503Y195618D01*
X285169Y195254D01*
X284843Y194871D01*
X284533Y194464D01*
X284248Y194027D01*
X283988Y193560D01*
X283752Y193062D01*
X283752Y191950D01*
X291924Y191950D01*
X291924Y193290D01*
G37*
G36*
X268272Y204291D02*
X266599Y204291D01*
X266599Y191950D01*
X268272Y191950D01*
X268272Y204291D01*
G37*
G36*
X57807Y150635D02*
X58275Y150669D01*
X58726Y150725D01*
X59161Y150803D01*
X59579Y150903D01*
X59981Y151026D01*
X60366Y151171D01*
X60734Y151338D01*
X61084Y151527D01*
X61413Y151736D01*
X61721Y151965D01*
X62009Y152214D01*
X62275Y152484D01*
X62521Y152773D01*
X62746Y153084D01*
X62950Y153414D01*
X63132Y153762D01*
X63289Y154126D01*
X63422Y154506D01*
X63531Y154902D01*
X63616Y155313D01*
X63677Y155740D01*
X63713Y156183D01*
X63725Y156641D01*
X63712Y157090D01*
X63673Y157525D01*
X63608Y157946D01*
X63517Y158353D01*
X63400Y158746D01*
X63257Y159125D01*
X63088Y159491D01*
X62893Y159843D01*
X62673Y160178D01*
X62429Y160494D01*
X62162Y160790D01*
X61871Y161068D01*
X61555Y161326D01*
X61216Y161565D01*
X60854Y161784D01*
X60467Y161984D01*
X59784Y160618D01*
X60095Y160450D01*
X60385Y160271D01*
X60656Y160083D01*
X60907Y159885D01*
X61137Y159676D01*
X61348Y159458D01*
X61538Y159229D01*
X61709Y158991D01*
X61859Y158742D01*
X61989Y158484D01*
X62099Y158215D01*
X62190Y157936D01*
X62260Y157647D01*
X62310Y157348D01*
X62340Y157039D01*
X62350Y156720D01*
X62329Y156228D01*
X62264Y155761D01*
X62156Y155320D01*
X62005Y154906D01*
X61811Y154518D01*
X61574Y154156D01*
X61294Y153820D01*
X60971Y153510D01*
X60612Y153232D01*
X60225Y152991D01*
X59811Y152787D01*
X59369Y152620D01*
X58899Y152490D01*
X58401Y152398D01*
X57876Y152342D01*
X57323Y152323D01*
X56764Y152341D01*
X56236Y152395D01*
X55739Y152484D01*
X55272Y152608D01*
X54836Y152768D01*
X54430Y152964D01*
X54055Y153195D01*
X53710Y153462D01*
X53401Y153761D01*
X53133Y154088D01*
X52907Y154444D01*
X52721Y154828D01*
X52577Y155241D01*
X52474Y155682D01*
X52412Y156152D01*
X52392Y156650D01*
X52401Y156971D01*
X52427Y157281D01*
X52472Y157579D01*
X52534Y157867D01*
X52614Y158143D01*
X52712Y158408D01*
X52828Y158662D01*
X52961Y158906D01*
X53111Y159135D01*
X53277Y159348D01*
X53459Y159545D01*
X53657Y159726D01*
X53871Y159890D01*
X54101Y160038D01*
X54346Y160170D01*
X54608Y160285D01*
X54082Y161870D01*
X53715Y161704D01*
X53371Y161516D01*
X53050Y161305D01*
X52753Y161073D01*
X52479Y160819D01*
X52228Y160543D01*
X52000Y160246D01*
X51796Y159926D01*
X51615Y159585D01*
X51459Y159224D01*
X51326Y158843D01*
X51218Y158441D01*
X51134Y158020D01*
X51073Y157578D01*
X51037Y157115D01*
X51025Y156633D01*
X51032Y156285D01*
X51051Y155947D01*
X51084Y155618D01*
X51130Y155299D01*
X51189Y154990D01*
X51261Y154690D01*
X51346Y154400D01*
X51444Y154119D01*
X51555Y153848D01*
X51679Y153586D01*
X51816Y153334D01*
X51966Y153092D01*
X52306Y152636D01*
X52698Y152218D01*
X53136Y151845D01*
X53615Y151521D01*
X54133Y151247D01*
X54407Y151129D01*
X54691Y151023D01*
X54985Y150929D01*
X55289Y150848D01*
X55603Y150780D01*
X55927Y150724D01*
X56261Y150680D01*
X56605Y150649D01*
X56959Y150631D01*
X57323Y150624D01*
X57807Y150635D01*
G37*
G36*
X60781Y163401D02*
X61156Y163496D01*
X61507Y163619D01*
X61832Y163771D01*
X62132Y163951D01*
X62407Y164159D01*
X62656Y164396D01*
X62880Y164661D01*
X63078Y164952D01*
X63250Y165267D01*
X63395Y165605D01*
X63514Y165967D01*
X63606Y166353D01*
X63672Y166762D01*
X63712Y167195D01*
X63725Y167652D01*
X63711Y168141D01*
X63667Y168601D01*
X63593Y169032D01*
X63491Y169434D01*
X63359Y169807D01*
X63198Y170152D01*
X63008Y170467D01*
X62788Y170753D01*
X62542Y171007D01*
X62271Y171228D01*
X61977Y171414D01*
X61658Y171567D01*
X61316Y171686D01*
X60949Y171771D01*
X60558Y171822D01*
X60143Y171839D01*
X59854Y171827D01*
X59577Y171790D01*
X59313Y171730D01*
X59061Y171646D01*
X58822Y171538D01*
X58596Y171405D01*
X58382Y171249D01*
X58181Y171068D01*
X57996Y170866D01*
X57831Y170644D01*
X57685Y170404D01*
X57559Y170144D01*
X57453Y169865D01*
X57366Y169567D01*
X57300Y169250D01*
X57253Y168913D01*
X57218Y168913D01*
X57144Y169219D01*
X57056Y169506D01*
X56953Y169775D01*
X56836Y170025D01*
X56703Y170255D01*
X56555Y170468D01*
X56392Y170661D01*
X56215Y170836D01*
X56023Y170991D01*
X55817Y171125D01*
X55597Y171239D01*
X55364Y171332D01*
X55117Y171404D01*
X54856Y171456D01*
X54581Y171487D01*
X54292Y171497D01*
X53917Y171481D01*
X53564Y171433D01*
X53232Y171352D01*
X52920Y171240D01*
X52631Y171095D01*
X52362Y170918D01*
X52114Y170709D01*
X51888Y170468D01*
X51686Y170198D01*
X51511Y169902D01*
X51362Y169580D01*
X51241Y169232D01*
X51147Y168858D01*
X51079Y168459D01*
X51039Y168033D01*
X51025Y167582D01*
X51039Y167167D01*
X51078Y166771D01*
X51145Y166394D01*
X51238Y166037D01*
X51357Y165699D01*
X51503Y165381D01*
X51676Y165081D01*
X51875Y164801D01*
X52098Y164545D01*
X52341Y164317D01*
X52606Y164117D01*
X52891Y163946D01*
X53197Y163803D01*
X53524Y163689D01*
X53871Y163602D01*
X54240Y163544D01*
X54362Y165130D01*
X54126Y165164D01*
X53904Y165216D01*
X53695Y165284D01*
X53500Y165369D01*
X53318Y165471D01*
X53150Y165590D01*
X52996Y165726D01*
X52856Y165878D01*
X52731Y166046D01*
X52622Y166225D01*
X52530Y166417D01*
X52455Y166622D01*
X52397Y166839D01*
X52355Y167068D01*
X52330Y167310D01*
X52322Y167564D01*
X52331Y167842D01*
X52357Y168103D01*
X52402Y168346D01*
X52465Y168571D01*
X52546Y168778D01*
X52644Y168968D01*
X52761Y169140D01*
X52895Y169294D01*
X53045Y169431D01*
X53208Y169549D01*
X53384Y169649D01*
X53573Y169731D01*
X53775Y169795D01*
X53990Y169840D01*
X54218Y169868D01*
X54459Y169877D01*
X54702Y169866D01*
X54931Y169832D01*
X55147Y169776D01*
X55349Y169698D01*
X55537Y169598D01*
X55713Y169475D01*
X55874Y169330D01*
X56022Y169163D01*
X56154Y168975D01*
X56269Y168770D01*
X56366Y168546D01*
X56446Y168303D01*
X56508Y168043D01*
X56552Y167765D01*
X56578Y167468D01*
X56587Y167153D01*
X56587Y166294D01*
X57953Y166294D01*
X57953Y167188D01*
X57962Y167543D01*
X57989Y167876D01*
X58033Y168188D01*
X58095Y168479D01*
X58174Y168748D01*
X58271Y168995D01*
X58386Y169221D01*
X58518Y169426D01*
X58666Y169607D01*
X58828Y169765D01*
X59004Y169898D01*
X59194Y170007D01*
X59397Y170092D01*
X59614Y170152D01*
X59846Y170189D01*
X60090Y170201D01*
X60371Y170190D01*
X60633Y170158D01*
X60877Y170105D01*
X61104Y170031D01*
X61313Y169936D01*
X61504Y169819D01*
X61678Y169681D01*
X61833Y169522D01*
X61971Y169344D01*
X62090Y169151D01*
X62191Y168941D01*
X62273Y168715D01*
X62338Y168473D01*
X62384Y168216D01*
X62411Y167942D01*
X62420Y167652D01*
X62412Y167363D01*
X62386Y167091D01*
X62343Y166834D01*
X62283Y166594D01*
X62206Y166370D01*
X62112Y166161D01*
X62001Y165969D01*
X61873Y165793D01*
X61727Y165633D01*
X61565Y165489D01*
X61385Y165361D01*
X61189Y165249D01*
X60975Y165154D01*
X60744Y165074D01*
X60496Y165011D01*
X60231Y164963D01*
X60379Y163334D01*
X60781Y163401D01*
G37*
G36*
X63550Y148073D02*
X51209Y148073D01*
X51209Y146400D01*
X63550Y146400D01*
X63550Y148073D01*
G37*
G36*
X182056Y170478D02*
X184850Y170478D01*
X184850Y171967D01*
X182056Y171967D01*
X182056Y173701D01*
X180812Y173701D01*
X180812Y171967D01*
X172509Y171967D01*
X172509Y170312D01*
X180830Y164663D01*
X182056Y164663D01*
X182056Y170478D01*
G37*
G36*
X179107Y152235D02*
X179575Y152269D01*
X180026Y152325D01*
X180461Y152403D01*
X180879Y152503D01*
X181281Y152626D01*
X181666Y152771D01*
X182034Y152938D01*
X182384Y153127D01*
X182713Y153336D01*
X183021Y153565D01*
X183309Y153814D01*
X183575Y154084D01*
X183821Y154373D01*
X184046Y154684D01*
X184250Y155014D01*
X184432Y155362D01*
X184589Y155726D01*
X184722Y156106D01*
X184831Y156502D01*
X184916Y156913D01*
X184977Y157340D01*
X185013Y157783D01*
X185025Y158241D01*
X185012Y158690D01*
X184973Y159125D01*
X184908Y159546D01*
X184817Y159953D01*
X184700Y160346D01*
X184557Y160725D01*
X184388Y161091D01*
X184193Y161443D01*
X183973Y161778D01*
X183729Y162094D01*
X183462Y162390D01*
X183171Y162668D01*
X182855Y162926D01*
X182516Y163165D01*
X182154Y163384D01*
X181767Y163584D01*
X181084Y162218D01*
X181395Y162050D01*
X181685Y161871D01*
X181956Y161683D01*
X182207Y161485D01*
X182437Y161276D01*
X182648Y161058D01*
X182838Y160829D01*
X183009Y160591D01*
X183159Y160342D01*
X183289Y160084D01*
X183399Y159815D01*
X183490Y159536D01*
X183560Y159247D01*
X183610Y158948D01*
X183640Y158639D01*
X183650Y158320D01*
X183629Y157828D01*
X183564Y157361D01*
X183456Y156920D01*
X183305Y156506D01*
X183111Y156118D01*
X182874Y155756D01*
X182594Y155420D01*
X182271Y155110D01*
X181912Y154832D01*
X181525Y154591D01*
X181111Y154387D01*
X180669Y154220D01*
X180199Y154090D01*
X179701Y153998D01*
X179176Y153942D01*
X178623Y153923D01*
X178064Y153941D01*
X177536Y153995D01*
X177039Y154084D01*
X176572Y154208D01*
X176136Y154368D01*
X175730Y154564D01*
X175355Y154795D01*
X175010Y155062D01*
X174701Y155361D01*
X174433Y155688D01*
X174207Y156044D01*
X174021Y156428D01*
X173877Y156841D01*
X173774Y157282D01*
X173712Y157752D01*
X173692Y158250D01*
X173701Y158571D01*
X173727Y158881D01*
X173772Y159179D01*
X173834Y159467D01*
X173914Y159743D01*
X174012Y160008D01*
X174128Y160262D01*
X174261Y160506D01*
X174411Y160735D01*
X174577Y160948D01*
X174759Y161145D01*
X174957Y161326D01*
X175171Y161490D01*
X175401Y161638D01*
X175646Y161770D01*
X175908Y161885D01*
X175382Y163470D01*
X175015Y163304D01*
X174671Y163116D01*
X174350Y162905D01*
X174053Y162673D01*
X173779Y162419D01*
X173528Y162143D01*
X173300Y161846D01*
X173096Y161526D01*
X172915Y161185D01*
X172759Y160824D01*
X172626Y160443D01*
X172518Y160041D01*
X172434Y159620D01*
X172373Y159178D01*
X172337Y158715D01*
X172325Y158233D01*
X172332Y157885D01*
X172351Y157547D01*
X172384Y157218D01*
X172430Y156899D01*
X172489Y156590D01*
X172561Y156290D01*
X172646Y156000D01*
X172744Y155719D01*
X172855Y155448D01*
X172979Y155186D01*
X173116Y154934D01*
X173266Y154692D01*
X173606Y154236D01*
X173998Y153818D01*
X174436Y153445D01*
X174915Y153121D01*
X175433Y152847D01*
X175707Y152729D01*
X175991Y152623D01*
X176285Y152529D01*
X176589Y152448D01*
X176903Y152380D01*
X177227Y152324D01*
X177561Y152280D01*
X177905Y152249D01*
X178259Y152231D01*
X178623Y152224D01*
X179107Y152235D01*
G37*
G36*
X184850Y149673D02*
X172509Y149673D01*
X172509Y148000D01*
X184850Y148000D01*
X184850Y149673D01*
G37*
%LPC*%
G36*
X180637Y166257D02*
X179989Y166730D01*
X175329Y169891D01*
X174751Y170233D01*
X174287Y170478D01*
X180812Y170478D01*
X180812Y166117D01*
X180637Y166257D01*
G37*
%LPD*%
G36*
X15107Y152035D02*
X15575Y152069D01*
X16026Y152125D01*
X16461Y152203D01*
X16879Y152303D01*
X17281Y152426D01*
X17666Y152571D01*
X18034Y152738D01*
X18384Y152927D01*
X18713Y153136D01*
X19021Y153365D01*
X19309Y153614D01*
X19575Y153884D01*
X19821Y154173D01*
X20046Y154484D01*
X20250Y154814D01*
X20432Y155162D01*
X20589Y155526D01*
X20722Y155906D01*
X20831Y156302D01*
X20916Y156713D01*
X20977Y157140D01*
X21013Y157583D01*
X21025Y158041D01*
X21012Y158490D01*
X20973Y158925D01*
X20908Y159346D01*
X20817Y159753D01*
X20700Y160146D01*
X20557Y160525D01*
X20388Y160891D01*
X20193Y161243D01*
X19973Y161578D01*
X19729Y161894D01*
X19462Y162190D01*
X19171Y162468D01*
X18855Y162726D01*
X18516Y162965D01*
X18154Y163184D01*
X17767Y163384D01*
X17084Y162018D01*
X17395Y161850D01*
X17685Y161671D01*
X17956Y161483D01*
X18207Y161285D01*
X18437Y161076D01*
X18648Y160858D01*
X18838Y160629D01*
X19009Y160391D01*
X19159Y160142D01*
X19289Y159884D01*
X19399Y159615D01*
X19490Y159336D01*
X19560Y159047D01*
X19610Y158748D01*
X19640Y158439D01*
X19650Y158120D01*
X19629Y157628D01*
X19564Y157161D01*
X19456Y156720D01*
X19305Y156306D01*
X19111Y155918D01*
X18874Y155556D01*
X18594Y155220D01*
X18271Y154910D01*
X17912Y154632D01*
X17525Y154391D01*
X17111Y154187D01*
X16669Y154020D01*
X16199Y153890D01*
X15701Y153798D01*
X15176Y153742D01*
X14623Y153723D01*
X14064Y153741D01*
X13536Y153795D01*
X13039Y153884D01*
X12572Y154008D01*
X12136Y154168D01*
X11730Y154364D01*
X11355Y154595D01*
X11010Y154862D01*
X10701Y155161D01*
X10433Y155488D01*
X10207Y155844D01*
X10021Y156228D01*
X9877Y156641D01*
X9774Y157082D01*
X9712Y157552D01*
X9692Y158050D01*
X9701Y158371D01*
X9727Y158681D01*
X9772Y158979D01*
X9834Y159267D01*
X9914Y159543D01*
X10012Y159808D01*
X10128Y160062D01*
X10261Y160306D01*
X10411Y160535D01*
X10577Y160748D01*
X10759Y160945D01*
X10957Y161126D01*
X11171Y161290D01*
X11401Y161438D01*
X11646Y161570D01*
X11908Y161685D01*
X11382Y163270D01*
X11015Y163104D01*
X10671Y162916D01*
X10350Y162705D01*
X10053Y162473D01*
X9779Y162219D01*
X9528Y161943D01*
X9300Y161646D01*
X9096Y161326D01*
X8915Y160985D01*
X8759Y160624D01*
X8626Y160243D01*
X8518Y159841D01*
X8434Y159420D01*
X8373Y158978D01*
X8337Y158515D01*
X8325Y158033D01*
X8332Y157685D01*
X8351Y157347D01*
X8384Y157018D01*
X8430Y156699D01*
X8489Y156390D01*
X8561Y156090D01*
X8646Y155800D01*
X8744Y155519D01*
X8855Y155248D01*
X8979Y154986D01*
X9116Y154734D01*
X9266Y154492D01*
X9606Y154036D01*
X9998Y153618D01*
X10436Y153245D01*
X10915Y152921D01*
X11433Y152647D01*
X11707Y152529D01*
X11991Y152423D01*
X12285Y152329D01*
X12589Y152248D01*
X12903Y152180D01*
X13227Y152124D01*
X13561Y152080D01*
X13905Y152049D01*
X14259Y152031D01*
X14623Y152024D01*
X15107Y152035D01*
G37*
G36*
X18437Y164851D02*
X18763Y164958D01*
X19067Y165089D01*
X19350Y165244D01*
X19612Y165424D01*
X19853Y165628D01*
X20073Y165856D01*
X20272Y166109D01*
X20449Y166385D01*
X20602Y166681D01*
X20731Y166998D01*
X20837Y167335D01*
X20919Y167694D01*
X20978Y168073D01*
X21013Y168473D01*
X21025Y168894D01*
X21008Y169395D01*
X20955Y169867D01*
X20868Y170312D01*
X20745Y170728D01*
X20587Y171117D01*
X20395Y171477D01*
X20167Y171809D01*
X19904Y172113D01*
X19611Y172385D01*
X19292Y172621D01*
X18946Y172820D01*
X18575Y172984D01*
X18178Y173110D01*
X17754Y173201D01*
X17305Y173256D01*
X16830Y173274D01*
X16411Y173257D01*
X16012Y173206D01*
X15633Y173122D01*
X15275Y173003D01*
X14937Y172851D01*
X14619Y172665D01*
X14322Y172446D01*
X14045Y172192D01*
X13794Y171910D01*
X13577Y171605D01*
X13393Y171277D01*
X13243Y170925D01*
X13126Y170551D01*
X13043Y170153D01*
X12993Y169732D01*
X12976Y169289D01*
X12988Y168915D01*
X13025Y168558D01*
X13087Y168216D01*
X13173Y167889D01*
X13284Y167579D01*
X13420Y167283D01*
X13580Y167004D01*
X13764Y166740D01*
X9849Y166976D01*
X9849Y172555D01*
X8509Y172555D01*
X8509Y165540D01*
X15148Y165128D01*
X15148Y166670D01*
X14925Y166946D01*
X14737Y167222D01*
X14583Y167497D01*
X14465Y167773D01*
X14377Y168055D01*
X14314Y168347D01*
X14276Y168650D01*
X14264Y168964D01*
X14275Y169263D01*
X14308Y169546D01*
X14365Y169813D01*
X14443Y170065D01*
X14544Y170301D01*
X14668Y170520D01*
X14813Y170725D01*
X14982Y170913D01*
X15168Y171083D01*
X15369Y171229D01*
X15583Y171354D01*
X15812Y171455D01*
X16054Y171534D01*
X16310Y171591D01*
X16581Y171625D01*
X16865Y171636D01*
X17191Y171625D01*
X17499Y171591D01*
X17789Y171535D01*
X18062Y171456D01*
X18316Y171355D01*
X18552Y171232D01*
X18771Y171086D01*
X18971Y170918D01*
X19151Y170729D01*
X19307Y170524D01*
X19438Y170301D01*
X19546Y170061D01*
X19630Y169804D01*
X19690Y169530D01*
X19726Y169238D01*
X19738Y168929D01*
X19731Y168677D01*
X19709Y168437D01*
X19673Y168209D01*
X19623Y167994D01*
X19559Y167791D01*
X19480Y167600D01*
X19387Y167421D01*
X19280Y167254D01*
X19159Y167100D01*
X19023Y166958D01*
X18872Y166828D01*
X18708Y166711D01*
X18529Y166606D01*
X18336Y166512D01*
X18129Y166432D01*
X17907Y166363D01*
X18091Y164769D01*
X18437Y164851D01*
G37*
G36*
X20850Y149473D02*
X8509Y149473D01*
X8509Y147800D01*
X20850Y147800D01*
X20850Y149473D01*
G37*
G36*
X138284Y165379D02*
X138958Y165431D01*
X139588Y165517D01*
X140174Y165638D01*
X140716Y165793D01*
X141214Y165983D01*
X141667Y166207D01*
X142077Y166465D01*
X142440Y166757D01*
X142755Y167079D01*
X143022Y167431D01*
X143240Y167814D01*
X143409Y168228D01*
X143530Y168673D01*
X143603Y169148D01*
X143621Y169397D01*
X143627Y169654D01*
X143609Y170107D01*
X143556Y170536D01*
X143468Y170939D01*
X143345Y171318D01*
X143186Y171671D01*
X142992Y171999D01*
X142762Y172301D01*
X142497Y172579D01*
X142202Y172827D01*
X141881Y173043D01*
X141534Y173225D01*
X141162Y173374D01*
X140763Y173490D01*
X140339Y173572D01*
X139890Y173622D01*
X139414Y173639D01*
X138975Y173623D01*
X138558Y173576D01*
X138165Y173498D01*
X137794Y173388D01*
X137446Y173247D01*
X137122Y173075D01*
X136820Y172871D01*
X136541Y172636D01*
X136291Y172374D01*
X136074Y172090D01*
X135890Y171785D01*
X135740Y171457D01*
X135623Y171107D01*
X135540Y170735D01*
X135490Y170341D01*
X135473Y169925D01*
X135479Y169677D01*
X135499Y169436D01*
X135531Y169202D01*
X135577Y168975D01*
X135707Y168542D01*
X135889Y168138D01*
X136121Y167770D01*
X136400Y167446D01*
X136727Y167166D01*
X137102Y166930D01*
X136524Y166941D01*
X135981Y166976D01*
X135474Y167034D01*
X135001Y167115D01*
X134564Y167219D01*
X134162Y167346D01*
X133795Y167496D01*
X133463Y167670D01*
X133168Y167864D01*
X132913Y168078D01*
X132697Y168310D01*
X132520Y168562D01*
X132383Y168833D01*
X132285Y169122D01*
X132226Y169431D01*
X132206Y169759D01*
X132230Y170133D01*
X132300Y170474D01*
X132418Y170779D01*
X132583Y171051D01*
X132794Y171287D01*
X133053Y171490D01*
X133359Y171657D01*
X133712Y171791D01*
X133441Y173297D01*
X133137Y173198D01*
X132852Y173083D01*
X132587Y172952D01*
X132341Y172804D01*
X132115Y172641D01*
X131909Y172461D01*
X131723Y172265D01*
X131556Y172053D01*
X131408Y171825D01*
X131281Y171581D01*
X131173Y171321D01*
X131084Y171044D01*
X131016Y170751D01*
X130967Y170442D01*
X130937Y170117D01*
X130927Y169776D01*
X130934Y169515D01*
X130954Y169261D01*
X130988Y169015D01*
X131035Y168777D01*
X131095Y168546D01*
X131169Y168323D01*
X131356Y167900D01*
X131598Y167506D01*
X131893Y167144D01*
X132242Y166811D01*
X132644Y166509D01*
X133096Y166240D01*
X133595Y166007D01*
X134141Y165810D01*
X134733Y165649D01*
X135371Y165523D01*
X136056Y165434D01*
X136788Y165380D01*
X137566Y165362D01*
X138284Y165379D01*
G37*
G36*
X137709Y152435D02*
X138177Y152469D01*
X138628Y152525D01*
X139063Y152603D01*
X139481Y152703D01*
X139883Y152826D01*
X140268Y152971D01*
X140636Y153138D01*
X140986Y153327D01*
X141315Y153536D01*
X141623Y153765D01*
X141910Y154014D01*
X142177Y154284D01*
X142423Y154573D01*
X142648Y154884D01*
X142852Y155214D01*
X143034Y155562D01*
X143191Y155926D01*
X143324Y156306D01*
X143433Y156702D01*
X143518Y157113D01*
X143579Y157540D01*
X143615Y157983D01*
X143627Y158441D01*
X143614Y158890D01*
X143575Y159325D01*
X143510Y159746D01*
X143419Y160153D01*
X143302Y160546D01*
X143159Y160925D01*
X142990Y161291D01*
X142795Y161643D01*
X142575Y161978D01*
X142331Y162294D01*
X142064Y162590D01*
X141773Y162868D01*
X141457Y163126D01*
X141118Y163365D01*
X140756Y163584D01*
X140369Y163784D01*
X139686Y162418D01*
X139997Y162250D01*
X140287Y162071D01*
X140558Y161883D01*
X140809Y161685D01*
X141039Y161476D01*
X141250Y161258D01*
X141440Y161029D01*
X141610Y160791D01*
X141761Y160542D01*
X141891Y160284D01*
X142001Y160015D01*
X142092Y159736D01*
X142162Y159447D01*
X142212Y159148D01*
X142242Y158839D01*
X142252Y158520D01*
X142230Y158028D01*
X142166Y157561D01*
X142058Y157120D01*
X141907Y156706D01*
X141713Y156318D01*
X141476Y155956D01*
X141196Y155620D01*
X140873Y155310D01*
X140514Y155032D01*
X140127Y154791D01*
X139713Y154587D01*
X139271Y154420D01*
X138801Y154290D01*
X138303Y154198D01*
X137778Y154142D01*
X137225Y154123D01*
X136666Y154141D01*
X136138Y154195D01*
X135641Y154284D01*
X135174Y154408D01*
X134738Y154568D01*
X134332Y154764D01*
X133957Y154995D01*
X133612Y155262D01*
X133303Y155561D01*
X133035Y155888D01*
X132808Y156244D01*
X132623Y156628D01*
X132479Y157041D01*
X132376Y157482D01*
X132314Y157952D01*
X132294Y158450D01*
X132302Y158771D01*
X132329Y159081D01*
X132374Y159379D01*
X132436Y159667D01*
X132516Y159943D01*
X132614Y160208D01*
X132729Y160462D01*
X132863Y160706D01*
X133013Y160935D01*
X133179Y161148D01*
X133361Y161345D01*
X133559Y161526D01*
X133773Y161690D01*
X134003Y161838D01*
X134248Y161970D01*
X134509Y162085D01*
X133984Y163670D01*
X133617Y163504D01*
X133273Y163316D01*
X132952Y163105D01*
X132655Y162873D01*
X132381Y162619D01*
X132130Y162343D01*
X131902Y162046D01*
X131698Y161726D01*
X131517Y161385D01*
X131361Y161024D01*
X131228Y160643D01*
X131120Y160241D01*
X131036Y159820D01*
X130975Y159378D01*
X130939Y158915D01*
X130927Y158433D01*
X130934Y158085D01*
X130953Y157747D01*
X130986Y157418D01*
X131032Y157099D01*
X131091Y156790D01*
X131162Y156490D01*
X131247Y156200D01*
X131345Y155919D01*
X131457Y155648D01*
X131581Y155386D01*
X131718Y155134D01*
X131868Y154892D01*
X132208Y154436D01*
X132600Y154018D01*
X133038Y153645D01*
X133516Y153321D01*
X134035Y153047D01*
X134309Y152929D01*
X134593Y152823D01*
X134887Y152729D01*
X135191Y152648D01*
X135505Y152580D01*
X135829Y152524D01*
X136163Y152480D01*
X136507Y152449D01*
X136861Y152431D01*
X137225Y152424D01*
X137709Y152435D01*
G37*
%LPC*%
G36*
X138833Y167098D02*
X138573Y167130D01*
X138329Y167183D01*
X138099Y167257D01*
X137885Y167352D01*
X137686Y167469D01*
X137503Y167607D01*
X137334Y167766D01*
X137183Y167942D01*
X137052Y168132D01*
X136942Y168335D01*
X136851Y168551D01*
X136781Y168780D01*
X136731Y169023D01*
X136700Y169279D01*
X136690Y169548D01*
X136702Y169834D01*
X136736Y170103D01*
X136793Y170356D01*
X136872Y170593D01*
X136974Y170814D01*
X137099Y171018D01*
X137247Y171207D01*
X137417Y171379D01*
X137609Y171533D01*
X137819Y171666D01*
X138049Y171779D01*
X138298Y171872D01*
X138566Y171943D01*
X138853Y171995D01*
X139159Y172026D01*
X139484Y172036D01*
X139810Y172026D01*
X140119Y171995D01*
X140409Y171945D01*
X140681Y171874D01*
X140935Y171783D01*
X141172Y171671D01*
X141390Y171540D01*
X141591Y171388D01*
X141770Y171218D01*
X141926Y171033D01*
X142058Y170833D01*
X142166Y170617D01*
X142249Y170386D01*
X142309Y170140D01*
X142345Y169878D01*
X142357Y169601D01*
X142343Y169331D01*
X142300Y169074D01*
X142229Y168829D01*
X142129Y168597D01*
X142001Y168377D01*
X141845Y168170D01*
X141660Y167975D01*
X141446Y167792D01*
X141210Y167627D01*
X140959Y167484D01*
X140690Y167363D01*
X140406Y167264D01*
X140106Y167186D01*
X139789Y167131D01*
X139457Y167098D01*
X139108Y167087D01*
X138833Y167098D01*
G37*
%LPD*%
G36*
X143452Y149873D02*
X131111Y149873D01*
X131111Y148200D01*
X143452Y148200D01*
X143452Y149873D01*
G37*
G36*
X216367Y93182D02*
X219993Y93182D01*
X220471Y93199D01*
X220923Y93247D01*
X221349Y93328D01*
X221750Y93441D01*
X222125Y93586D01*
X222475Y93764D01*
X222799Y93974D01*
X223098Y94216D01*
X223366Y94486D01*
X223598Y94778D01*
X223794Y95092D01*
X223955Y95429D01*
X224080Y95788D01*
X224169Y96170D01*
X224223Y96574D01*
X224241Y97001D01*
X224223Y97431D01*
X224170Y97836D01*
X224081Y98216D01*
X223956Y98571D01*
X223796Y98901D01*
X223600Y99207D01*
X223369Y99487D01*
X223102Y99743D01*
X222803Y99970D01*
X222474Y100168D01*
X222116Y100335D01*
X221729Y100472D01*
X221313Y100578D01*
X220867Y100654D01*
X220392Y100700D01*
X219888Y100715D01*
X214694Y100715D01*
X214694Y88374D01*
X216367Y88374D01*
X216367Y93182D01*
G37*
G36*
X234260Y89714D02*
X231256Y89714D01*
X231256Y100715D01*
X229802Y100715D01*
X226885Y98709D01*
X226885Y97220D01*
X229671Y99208D01*
X229671Y89714D01*
X226526Y89714D01*
X226526Y88374D01*
X234260Y88374D01*
X234260Y89714D01*
G37*
G36*
X208668Y88215D02*
X209057Y88263D01*
X209423Y88344D01*
X209767Y88456D01*
X210089Y88601D01*
X210388Y88778D01*
X210665Y88987D01*
X210919Y89228D01*
X211147Y89497D01*
X211344Y89790D01*
X211511Y90108D01*
X211648Y90449D01*
X211755Y90814D01*
X211831Y91203D01*
X211876Y91616D01*
X211891Y92053D01*
X211891Y100715D01*
X207854Y100715D01*
X207854Y99348D01*
X210227Y99348D01*
X210227Y92018D01*
X210219Y91724D01*
X210194Y91450D01*
X210153Y91193D01*
X210096Y90954D01*
X210022Y90734D01*
X209932Y90532D01*
X209825Y90348D01*
X209702Y90183D01*
X209564Y90036D01*
X209415Y89909D01*
X209253Y89801D01*
X209080Y89713D01*
X208894Y89644D01*
X208697Y89596D01*
X208487Y89566D01*
X208265Y89556D01*
X208062Y89565D01*
X207867Y89592D01*
X207681Y89636D01*
X207503Y89699D01*
X207335Y89779D01*
X207175Y89877D01*
X207024Y89992D01*
X206881Y90126D01*
X206750Y90275D01*
X206630Y90438D01*
X206523Y90616D01*
X206428Y90807D01*
X206346Y91012D01*
X206275Y91231D01*
X206218Y91464D01*
X206172Y91711D01*
X204534Y91439D01*
X204617Y91047D01*
X204721Y90680D01*
X204844Y90338D01*
X204987Y90022D01*
X205150Y89731D01*
X205333Y89465D01*
X205535Y89224D01*
X205758Y89009D01*
X206001Y88819D01*
X206263Y88655D01*
X206546Y88515D01*
X206848Y88401D01*
X207170Y88313D01*
X207512Y88249D01*
X207874Y88212D01*
X208256Y88199D01*
X208668Y88215D01*
G37*
%LPC*%
G36*
X216367Y94505D02*
X216367Y99375D01*
X219686Y99375D01*
X220034Y99365D01*
X220360Y99337D01*
X220663Y99291D01*
X220943Y99225D01*
X221201Y99141D01*
X221437Y99038D01*
X221650Y98917D01*
X221841Y98777D01*
X222009Y98618D01*
X222155Y98441D01*
X222279Y98245D01*
X222380Y98030D01*
X222458Y97796D01*
X222514Y97544D01*
X222548Y97273D01*
X222559Y96984D01*
X222548Y96683D01*
X222515Y96403D01*
X222461Y96141D01*
X222384Y95899D01*
X222285Y95677D01*
X222165Y95473D01*
X222023Y95289D01*
X221858Y95125D01*
X221672Y94979D01*
X221464Y94854D01*
X221234Y94747D01*
X220983Y94660D01*
X220709Y94592D01*
X220413Y94544D01*
X220096Y94515D01*
X219756Y94505D01*
X216367Y94505D01*
G37*
%LPD*%
G36*
X208709Y151680D02*
X203585Y151680D01*
X203585Y155525D01*
X208709Y158730D01*
X208709Y160657D01*
X205656Y158645D01*
X203393Y157154D01*
X203320Y157497D01*
X203227Y157821D01*
X203111Y158126D01*
X202974Y158412D01*
X202882Y158568D01*
X202816Y158679D01*
X202636Y158927D01*
X202434Y159155D01*
X202210Y159365D01*
X201969Y159553D01*
X201714Y159716D01*
X201446Y159854D01*
X201164Y159966D01*
X200868Y160054D01*
X200558Y160117D01*
X200235Y160154D01*
X199898Y160167D01*
X199493Y160149D01*
X199112Y160096D01*
X198753Y160007D01*
X198417Y159883D01*
X198103Y159724D01*
X197813Y159529D01*
X197546Y159298D01*
X197301Y159033D01*
X197082Y158734D01*
X196893Y158406D01*
X196733Y158048D01*
X196601Y157661D01*
X196499Y157244D01*
X196427Y156797D01*
X196383Y156320D01*
X196368Y155814D01*
X196368Y150007D01*
X208709Y150007D01*
X208709Y151680D01*
G37*
G36*
X208709Y170573D02*
X207369Y170573D01*
X207369Y167569D01*
X196368Y167569D01*
X196368Y166115D01*
X198374Y163198D01*
X199863Y163198D01*
X197875Y165984D01*
X207369Y165984D01*
X207369Y162839D01*
X208709Y162839D01*
X208709Y170573D01*
G37*
%LPC*%
G36*
X197708Y151680D02*
X197708Y155647D01*
X197717Y155981D01*
X197744Y156295D01*
X197788Y156588D01*
X197850Y156861D01*
X197929Y157115D01*
X198026Y157348D01*
X198141Y157561D01*
X198273Y157754D01*
X198422Y157925D01*
X198588Y158074D01*
X198769Y158199D01*
X198966Y158302D01*
X199180Y158382D01*
X199409Y158439D01*
X199654Y158474D01*
X199915Y158485D01*
X200186Y158474D01*
X200441Y158440D01*
X200680Y158384D01*
X200904Y158304D01*
X201113Y158203D01*
X201306Y158079D01*
X201483Y157932D01*
X201645Y157763D01*
X201790Y157573D01*
X201915Y157364D01*
X202022Y157136D01*
X202108Y156890D01*
X202176Y156625D01*
X202224Y156341D01*
X202253Y156039D01*
X202263Y155717D01*
X202263Y151680D01*
X197708Y151680D01*
G37*
%LPD*%
G36*
X6680Y271415D02*
X10525Y271415D01*
X13730Y266291D01*
X15657Y266291D01*
X13645Y269344D01*
X12154Y271607D01*
X12497Y271680D01*
X12821Y271773D01*
X13126Y271889D01*
X13412Y272026D01*
X13568Y272118D01*
X13679Y272184D01*
X13927Y272365D01*
X14155Y272566D01*
X14365Y272790D01*
X14553Y273031D01*
X14716Y273286D01*
X14854Y273554D01*
X14966Y273836D01*
X15054Y274132D01*
X15117Y274442D01*
X15154Y274765D01*
X15167Y275102D01*
X15149Y275507D01*
X15096Y275888D01*
X15007Y276247D01*
X14883Y276583D01*
X14724Y276897D01*
X14529Y277187D01*
X14298Y277454D01*
X14033Y277699D01*
X13734Y277918D01*
X13406Y278107D01*
X13048Y278267D01*
X12661Y278399D01*
X12244Y278501D01*
X11797Y278573D01*
X11320Y278617D01*
X10814Y278632D01*
X5007Y278632D01*
X5007Y266291D01*
X6680Y266291D01*
X6680Y271415D01*
G37*
G36*
X25547Y267631D02*
X19109Y267631D01*
X19261Y267941D01*
X19455Y268256D01*
X19691Y268578D01*
X19968Y268905D01*
X20291Y269246D01*
X20666Y269607D01*
X21092Y269988D01*
X21570Y270390D01*
X22412Y271086D01*
X23105Y271684D01*
X23651Y272185D01*
X24049Y272588D01*
X24353Y272943D01*
X24617Y273298D01*
X24841Y273653D01*
X25026Y274007D01*
X25169Y274363D01*
X25272Y274719D01*
X25334Y275076D01*
X25354Y275435D01*
X25338Y275828D01*
X25291Y276199D01*
X25213Y276546D01*
X25103Y276870D01*
X24962Y277171D01*
X24790Y277449D01*
X24586Y277704D01*
X24351Y277935D01*
X24087Y278142D01*
X23796Y278321D01*
X23478Y278472D01*
X23133Y278596D01*
X22761Y278692D01*
X22362Y278761D01*
X21936Y278802D01*
X21483Y278816D01*
X21068Y278802D01*
X20672Y278761D01*
X20295Y278693D01*
X19938Y278597D01*
X19600Y278474D01*
X19281Y278323D01*
X18982Y278145D01*
X18702Y277940D01*
X18446Y277711D01*
X18218Y277464D01*
X18018Y277198D01*
X17847Y276913D01*
X17704Y276609D01*
X17589Y276286D01*
X17503Y275944D01*
X17445Y275584D01*
X19057Y275435D01*
X19094Y275675D01*
X19147Y275902D01*
X19218Y276115D01*
X19305Y276314D01*
X19409Y276499D01*
X19530Y276671D01*
X19668Y276828D01*
X19823Y276972D01*
X19992Y277100D01*
X20171Y277212D01*
X20362Y277306D01*
X20564Y277383D01*
X20777Y277442D01*
X21001Y277485D01*
X21237Y277511D01*
X21483Y277519D01*
X21740Y277511D01*
X21984Y277484D01*
X22212Y277441D01*
X22427Y277379D01*
X22626Y277300D01*
X22811Y277204D01*
X22982Y277090D01*
X23138Y276959D01*
X23278Y276812D01*
X23399Y276650D01*
X23501Y276474D01*
X23585Y276284D01*
X23650Y276080D01*
X23697Y275862D01*
X23724Y275629D01*
X23734Y275382D01*
X23712Y275016D01*
X23647Y274669D01*
X23539Y274341D01*
X23388Y274034D01*
X23201Y273739D01*
X22988Y273451D01*
X22748Y273170D01*
X22481Y272895D01*
X21887Y272352D01*
X21224Y271809D01*
X20525Y271243D01*
X19819Y270631D01*
X19468Y270304D01*
X19126Y269959D01*
X18791Y269595D01*
X18465Y269212D01*
X18156Y268805D01*
X17871Y268368D01*
X17611Y267901D01*
X17375Y267403D01*
X17375Y266291D01*
X25547Y266291D01*
X25547Y267631D01*
G37*
%LPC*%
G36*
X6680Y272737D02*
X6680Y277292D01*
X10647Y277292D01*
X10981Y277283D01*
X11295Y277256D01*
X11588Y277212D01*
X11861Y277151D01*
X12115Y277071D01*
X12348Y276974D01*
X12561Y276859D01*
X12754Y276727D01*
X12925Y276578D01*
X13074Y276412D01*
X13199Y276231D01*
X13302Y276034D01*
X13382Y275821D01*
X13439Y275591D01*
X13474Y275346D01*
X13485Y275085D01*
X13474Y274814D01*
X13440Y274559D01*
X13384Y274320D01*
X13304Y274096D01*
X13203Y273887D01*
X13079Y273694D01*
X12932Y273517D01*
X12763Y273355D01*
X12573Y273210D01*
X12364Y273085D01*
X12136Y272978D01*
X11890Y272892D01*
X11625Y272824D01*
X11341Y272776D01*
X11039Y272747D01*
X10717Y272737D01*
X6680Y272737D01*
G37*
%LPD*%
G36*
X6680Y187433D02*
X10525Y187433D01*
X13730Y182309D01*
X15657Y182309D01*
X13645Y185362D01*
X12154Y187625D01*
X12497Y187698D01*
X12821Y187791D01*
X13126Y187907D01*
X13412Y188044D01*
X13568Y188136D01*
X13679Y188202D01*
X13927Y188383D01*
X14155Y188584D01*
X14365Y188808D01*
X14553Y189049D01*
X14716Y189304D01*
X14854Y189572D01*
X14966Y189854D01*
X15054Y190150D01*
X15117Y190460D01*
X15154Y190783D01*
X15167Y191120D01*
X15149Y191525D01*
X15096Y191906D01*
X15007Y192265D01*
X14883Y192601D01*
X14724Y192915D01*
X14529Y193205D01*
X14298Y193472D01*
X14033Y193717D01*
X13734Y193936D01*
X13406Y194125D01*
X13048Y194285D01*
X12661Y194417D01*
X12244Y194519D01*
X11797Y194591D01*
X11320Y194635D01*
X10814Y194650D01*
X5007Y194650D01*
X5007Y182309D01*
X6680Y182309D01*
X6680Y187433D01*
G37*
G36*
X21963Y182149D02*
X22423Y182192D01*
X22854Y182266D01*
X23256Y182368D01*
X23629Y182500D01*
X23974Y182661D01*
X24289Y182851D01*
X24575Y183071D01*
X24829Y183317D01*
X25050Y183588D01*
X25236Y183882D01*
X25389Y184201D01*
X25508Y184544D01*
X25593Y184910D01*
X25644Y185301D01*
X25661Y185716D01*
X25649Y186005D01*
X25612Y186282D01*
X25552Y186546D01*
X25468Y186798D01*
X25360Y187037D01*
X25227Y187263D01*
X25071Y187477D01*
X24890Y187678D01*
X24688Y187863D01*
X24466Y188028D01*
X24226Y188174D01*
X23966Y188300D01*
X23687Y188406D01*
X23389Y188493D01*
X23072Y188559D01*
X22735Y188606D01*
X22735Y188641D01*
X23041Y188715D01*
X23328Y188803D01*
X23597Y188906D01*
X23847Y189024D01*
X24077Y189156D01*
X24290Y189304D01*
X24483Y189467D01*
X24658Y189644D01*
X24813Y189836D01*
X24947Y190042D01*
X25061Y190262D01*
X25154Y190495D01*
X25226Y190742D01*
X25278Y191003D01*
X25309Y191278D01*
X25319Y191567D01*
X25303Y191942D01*
X25255Y192295D01*
X25174Y192627D01*
X25062Y192939D01*
X24917Y193229D01*
X24740Y193497D01*
X24531Y193745D01*
X24290Y193971D01*
X24020Y194173D01*
X23724Y194348D01*
X23402Y194497D01*
X23054Y194618D01*
X22680Y194712D01*
X22281Y194780D01*
X21855Y194820D01*
X21404Y194834D01*
X20989Y194820D01*
X20593Y194781D01*
X20216Y194714D01*
X19859Y194621D01*
X19521Y194502D01*
X19203Y194356D01*
X18903Y194183D01*
X18623Y193984D01*
X18367Y193761D01*
X18139Y193518D01*
X17939Y193253D01*
X17768Y192968D01*
X17625Y192662D01*
X17511Y192335D01*
X17424Y191988D01*
X17366Y191619D01*
X18952Y191497D01*
X18986Y191733D01*
X19038Y191955D01*
X19106Y192164D01*
X19191Y192359D01*
X19293Y192541D01*
X19412Y192709D01*
X19548Y192863D01*
X19700Y193003D01*
X19868Y193128D01*
X20047Y193237D01*
X20239Y193329D01*
X20444Y193404D01*
X20661Y193462D01*
X20890Y193504D01*
X21132Y193529D01*
X21386Y193537D01*
X21664Y193528D01*
X21925Y193502D01*
X22168Y193457D01*
X22393Y193394D01*
X22600Y193313D01*
X22790Y193215D01*
X22962Y193098D01*
X23116Y192964D01*
X23253Y192814D01*
X23371Y192651D01*
X23471Y192475D01*
X23553Y192286D01*
X23617Y192084D01*
X23662Y191869D01*
X23690Y191641D01*
X23699Y191400D01*
X23688Y191158D01*
X23654Y190928D01*
X23598Y190712D01*
X23520Y190510D01*
X23420Y190322D01*
X23297Y190147D01*
X23152Y189985D01*
X22985Y189837D01*
X22797Y189705D01*
X22592Y189590D01*
X22368Y189493D01*
X22125Y189413D01*
X21865Y189351D01*
X21587Y189307D01*
X21290Y189281D01*
X20975Y189272D01*
X20116Y189272D01*
X20116Y187906D01*
X21010Y187906D01*
X21365Y187897D01*
X21698Y187870D01*
X22010Y187826D01*
X22301Y187764D01*
X22570Y187685D01*
X22817Y187588D01*
X23043Y187473D01*
X23248Y187341D01*
X23429Y187193D01*
X23587Y187031D01*
X23720Y186855D01*
X23829Y186665D01*
X23914Y186462D01*
X23974Y186245D01*
X24011Y186014D01*
X24023Y185769D01*
X24012Y185488D01*
X23980Y185226D01*
X23927Y184982D01*
X23853Y184755D01*
X23758Y184546D01*
X23641Y184355D01*
X23503Y184181D01*
X23344Y184026D01*
X23166Y183888D01*
X22973Y183769D01*
X22763Y183668D01*
X22537Y183586D01*
X22295Y183521D01*
X22038Y183476D01*
X21764Y183448D01*
X21474Y183439D01*
X21185Y183447D01*
X20913Y183473D01*
X20656Y183516D01*
X20416Y183576D01*
X20192Y183653D01*
X19983Y183747D01*
X19791Y183858D01*
X19615Y183986D01*
X19455Y184132D01*
X19311Y184294D01*
X19183Y184474D01*
X19071Y184671D01*
X18976Y184884D01*
X18896Y185115D01*
X18833Y185363D01*
X18785Y185628D01*
X17156Y185480D01*
X17223Y185078D01*
X17318Y184703D01*
X17441Y184352D01*
X17593Y184027D01*
X17773Y183727D01*
X17981Y183452D01*
X18218Y183203D01*
X18483Y182979D01*
X18774Y182781D01*
X19089Y182609D01*
X19427Y182464D01*
X19789Y182345D01*
X20175Y182253D01*
X20584Y182187D01*
X21017Y182147D01*
X21474Y182134D01*
X21963Y182149D01*
G37*
%LPC*%
G36*
X6680Y188755D02*
X6680Y193310D01*
X10647Y193310D01*
X10981Y193301D01*
X11295Y193274D01*
X11588Y193230D01*
X11861Y193169D01*
X12115Y193089D01*
X12348Y192992D01*
X12561Y192877D01*
X12754Y192745D01*
X12925Y192596D01*
X13074Y192430D01*
X13199Y192249D01*
X13302Y192052D01*
X13382Y191839D01*
X13439Y191609D01*
X13474Y191364D01*
X13485Y191103D01*
X13474Y190832D01*
X13440Y190577D01*
X13384Y190338D01*
X13304Y190114D01*
X13203Y189905D01*
X13079Y189712D01*
X12932Y189535D01*
X12763Y189373D01*
X12573Y189228D01*
X12364Y189103D01*
X12136Y188996D01*
X11890Y188910D01*
X11625Y188842D01*
X11341Y188794D01*
X11039Y188765D01*
X10717Y188755D01*
X6680Y188755D01*
G37*
%LPD*%
G36*
X-41220Y260434D02*
X-37375Y260434D01*
X-34170Y255310D01*
X-32243Y255310D01*
X-34255Y258363D01*
X-35746Y260626D01*
X-35403Y260699D01*
X-35079Y260792D01*
X-34774Y260908D01*
X-34488Y261045D01*
X-34332Y261137D01*
X-34221Y261203D01*
X-33973Y261384D01*
X-33745Y261585D01*
X-33535Y261809D01*
X-33347Y262050D01*
X-33184Y262305D01*
X-33046Y262573D01*
X-32934Y262855D01*
X-32846Y263151D01*
X-32783Y263461D01*
X-32746Y263784D01*
X-32733Y264121D01*
X-32751Y264526D01*
X-32804Y264907D01*
X-32893Y265266D01*
X-33017Y265602D01*
X-33176Y265916D01*
X-33371Y266206D01*
X-33602Y266473D01*
X-33868Y266718D01*
X-34166Y266937D01*
X-34494Y267126D01*
X-34852Y267286D01*
X-35239Y267418D01*
X-35657Y267520D01*
X-36103Y267592D01*
X-36580Y267636D01*
X-37086Y267651D01*
X-42893Y267651D01*
X-42893Y255310D01*
X-41220Y255310D01*
X-41220Y260434D01*
G37*
G36*
X-23711Y258104D02*
X-21977Y258104D01*
X-21977Y259348D01*
X-23711Y259348D01*
X-23711Y267651D01*
X-25366Y267651D01*
X-31015Y259330D01*
X-31015Y258104D01*
X-25200Y258104D01*
X-25200Y255310D01*
X-23711Y255310D01*
X-23711Y258104D01*
G37*
%LPC*%
G36*
X-41220Y261756D02*
X-41220Y266311D01*
X-37253Y266311D01*
X-36919Y266302D01*
X-36605Y266275D01*
X-36312Y266231D01*
X-36039Y266170D01*
X-35785Y266090D01*
X-35552Y265993D01*
X-35339Y265878D01*
X-35146Y265746D01*
X-34975Y265597D01*
X-34826Y265431D01*
X-34701Y265250D01*
X-34598Y265053D01*
X-34518Y264840D01*
X-34461Y264610D01*
X-34426Y264365D01*
X-34415Y264104D01*
X-34426Y263833D01*
X-34460Y263578D01*
X-34517Y263339D01*
X-34596Y263115D01*
X-34697Y262906D01*
X-34821Y262713D01*
X-34968Y262536D01*
X-35137Y262374D01*
X-35328Y262229D01*
X-35536Y262104D01*
X-35764Y261997D01*
X-36010Y261911D01*
X-36275Y261843D01*
X-36559Y261795D01*
X-36861Y261766D01*
X-37183Y261756D01*
X-41220Y261756D01*
G37*
G36*
X-29562Y259348D02*
X-29421Y259523D01*
X-28948Y260171D01*
X-25787Y264831D01*
X-25445Y265409D01*
X-25200Y265873D01*
X-25200Y259348D01*
X-29562Y259348D01*
G37*
%LPD*%
G36*
X117326Y236664D02*
X117700Y236691D01*
X118062Y236736D01*
X118410Y236798D01*
X118746Y236879D01*
X119069Y236978D01*
X119378Y237094D01*
X119675Y237229D01*
X119957Y237380D01*
X120222Y237547D01*
X120471Y237731D01*
X120704Y237930D01*
X120920Y238146D01*
X121120Y238377D01*
X121303Y238625D01*
X121470Y238888D01*
X121619Y239166D01*
X121748Y239457D01*
X121857Y239761D01*
X121947Y240077D01*
X122016Y240407D01*
X122066Y240749D01*
X122096Y241104D01*
X122105Y241472D01*
X122105Y249171D01*
X120441Y249171D01*
X120441Y241568D01*
X120427Y241146D01*
X120384Y240749D01*
X120311Y240379D01*
X120210Y240035D01*
X120080Y239716D01*
X119922Y239424D01*
X119734Y239159D01*
X119517Y238919D01*
X119275Y238706D01*
X119009Y238522D01*
X118720Y238367D01*
X118408Y238239D01*
X118073Y238140D01*
X117715Y238069D01*
X117334Y238027D01*
X116929Y238012D01*
X116536Y238026D01*
X116167Y238067D01*
X115821Y238136D01*
X115499Y238231D01*
X115201Y238355D01*
X114927Y238505D01*
X114677Y238683D01*
X114450Y238888D01*
X114249Y239120D01*
X114075Y239377D01*
X113927Y239660D01*
X113807Y239968D01*
X113713Y240301D01*
X113646Y240660D01*
X113606Y241045D01*
X113592Y241455D01*
X113592Y249171D01*
X111919Y249171D01*
X111919Y241314D01*
X111929Y240957D01*
X111958Y240613D01*
X112007Y240281D01*
X112075Y239961D01*
X112162Y239654D01*
X112269Y239360D01*
X112395Y239078D01*
X112541Y238809D01*
X112705Y238554D01*
X112884Y238315D01*
X113079Y238091D01*
X113290Y237883D01*
X113517Y237691D01*
X113760Y237514D01*
X114018Y237352D01*
X114293Y237207D01*
X114581Y237077D01*
X114882Y236965D01*
X115194Y236870D01*
X115519Y236793D01*
X115856Y236732D01*
X116204Y236689D01*
X116565Y236663D01*
X116938Y236655D01*
X117326Y236664D01*
G37*
G36*
X132573Y238170D02*
X129569Y238170D01*
X129569Y249171D01*
X128115Y249171D01*
X125198Y247165D01*
X125198Y245676D01*
X127984Y247664D01*
X127984Y238170D01*
X124839Y238170D01*
X124839Y236830D01*
X132573Y236830D01*
X132573Y238170D01*
G37*
D10*
X282833Y254850D02*
X282833Y232850D01*
X303767Y232850D02*
X303767Y254850D01*
X254833Y254850D02*
X254833Y232850D01*
X275767Y232850D02*
X275767Y254850D01*
X142233Y307700D02*
X142233Y329700D01*
X163167Y329700D02*
X163167Y307700D01*
X167333Y307700D02*
X167333Y329700D01*
X188267Y329700D02*
X188267Y307700D01*
D11*
X93800Y160701D02*
X93800Y158701D01*
X93800Y160701D02*
X113800Y160701D01*
X113800Y158701D01*
X93800Y158701D01*
X91550Y155201D02*
X91550Y145201D01*
X276150Y210400D02*
X281650Y210400D01*
X281650Y181400D01*
X276150Y181400D01*
X276150Y210400D01*
X272650Y210900D02*
X260150Y210900D01*
X52900Y160701D02*
X52900Y158701D01*
X52900Y160701D02*
X72900Y160701D01*
X72900Y158701D01*
X52900Y158701D01*
X50650Y155201D02*
X50650Y145201D01*
X172300Y158401D02*
X172300Y160401D01*
X192300Y160401D01*
X192300Y158401D01*
X172300Y158401D01*
X170050Y154901D02*
X170050Y144901D01*
X12100Y158901D02*
X12100Y160901D01*
X32100Y160901D01*
X32100Y158901D01*
X12100Y158901D01*
X9850Y155401D02*
X9850Y145401D01*
X133802Y157601D02*
X133802Y159601D01*
X153802Y159601D01*
X153802Y157601D01*
X133802Y157601D01*
X131552Y154101D02*
X131552Y144101D01*
D12*
X75650Y106662D02*
X62950Y106662D01*
X56600Y113012D01*
X56600Y125712D01*
X62950Y132062D01*
X101050Y106662D02*
X107400Y113012D01*
X101050Y106662D02*
X88350Y106662D01*
X82000Y113012D01*
X82000Y125712D01*
X88350Y132062D01*
X101050Y132062D01*
X107400Y125712D01*
X82000Y113012D02*
X75650Y106662D01*
X82000Y125712D02*
X75650Y132062D01*
X62950Y132062D01*
X139150Y106662D02*
X151850Y106662D01*
X139150Y106662D02*
X132800Y113012D01*
X132800Y125712D01*
X139150Y132062D01*
X132800Y113012D02*
X126450Y106662D01*
X113750Y106662D01*
X107400Y113012D01*
X107400Y125712D01*
X113750Y132062D01*
X126450Y132062D01*
X132800Y125712D01*
X177250Y106662D02*
X183600Y113012D01*
X177250Y106662D02*
X164550Y106662D01*
X158200Y113012D01*
X158200Y125712D01*
X164550Y132062D01*
X177250Y132062D01*
X183600Y125712D01*
X158200Y113012D02*
X151850Y106662D01*
X158200Y125712D02*
X151850Y132062D01*
X139150Y132062D01*
X215350Y106662D02*
X228050Y106662D01*
X215350Y106662D02*
X209000Y113012D01*
X209000Y125712D01*
X215350Y132062D01*
X209000Y113012D02*
X202650Y106662D01*
X189950Y106662D01*
X183600Y113012D01*
X183600Y125712D01*
X189950Y132062D01*
X202650Y132062D01*
X209000Y125712D01*
X234400Y125712D02*
X234400Y113012D01*
X228050Y106662D01*
X234400Y125712D02*
X228050Y132062D01*
X215350Y132062D01*
X50250Y106662D02*
X37550Y106662D01*
X31200Y113012D01*
X31200Y125712D01*
X37550Y132062D01*
X56600Y113012D02*
X50250Y106662D01*
X56600Y125712D02*
X50250Y132062D01*
X37550Y132062D01*
D10*
X215059Y149250D02*
X215059Y170750D01*
X235541Y170750D02*
X235541Y149250D01*
X25750Y259941D02*
X4250Y259941D01*
X4250Y239459D02*
X25750Y239459D01*
X25750Y201359D02*
X4250Y201359D01*
X4250Y221841D02*
X25750Y221841D01*
X-27400Y248960D02*
X-38400Y248960D01*
X-38400Y236240D02*
X-27400Y236240D01*
D11*
X53700Y195000D02*
X53700Y286000D01*
X53700Y195000D02*
X215700Y195000D01*
X215700Y286000D01*
X53700Y286000D01*
X200367Y303630D02*
X200369Y303682D01*
X200375Y303733D01*
X200385Y303783D01*
X200398Y303833D01*
X200416Y303882D01*
X200437Y303929D01*
X200462Y303974D01*
X200490Y304017D01*
X200521Y304058D01*
X200555Y304097D01*
X200592Y304132D01*
X200632Y304165D01*
X200674Y304195D01*
X200718Y304221D01*
X200765Y304244D01*
X200813Y304263D01*
X200862Y304279D01*
X200912Y304291D01*
X200963Y304299D01*
X201014Y304303D01*
X201066Y304303D01*
X201117Y304299D01*
X201168Y304291D01*
X201218Y304279D01*
X201267Y304263D01*
X201315Y304244D01*
X201362Y304221D01*
X201406Y304195D01*
X201448Y304165D01*
X201488Y304132D01*
X201525Y304097D01*
X201559Y304058D01*
X201590Y304017D01*
X201618Y303974D01*
X201643Y303929D01*
X201664Y303882D01*
X201682Y303833D01*
X201695Y303783D01*
X201705Y303733D01*
X201711Y303682D01*
X201713Y303630D01*
X201711Y303578D01*
X201705Y303527D01*
X201695Y303477D01*
X201682Y303427D01*
X201664Y303378D01*
X201643Y303331D01*
X201618Y303286D01*
X201590Y303243D01*
X201559Y303202D01*
X201525Y303163D01*
X201488Y303128D01*
X201448Y303095D01*
X201406Y303065D01*
X201362Y303039D01*
X201315Y303016D01*
X201267Y302997D01*
X201218Y302981D01*
X201168Y302969D01*
X201117Y302961D01*
X201066Y302957D01*
X201014Y302957D01*
X200963Y302961D01*
X200912Y302969D01*
X200862Y302981D01*
X200813Y302997D01*
X200765Y303016D01*
X200718Y303039D01*
X200674Y303065D01*
X200632Y303095D01*
X200592Y303128D01*
X200555Y303163D01*
X200521Y303202D01*
X200490Y303243D01*
X200462Y303286D01*
X200437Y303331D01*
X200416Y303378D01*
X200398Y303427D01*
X200385Y303477D01*
X200375Y303527D01*
X200369Y303578D01*
X200367Y303630D01*
M02*
