G04 EAGLE Gerber RS-274X export*
G75*
%MOMM*%
%FSLAX34Y34*%
%LPD*%
%INSoldermask Top*%
%IPPOS*%
%AMOC8*
5,1,8,0,0,1.08239X$1,22.5*%
G01*
G04 Define Apertures*
%ADD10R,1.668500X1.367800*%
%ADD11R,0.653200X1.203200*%
%ADD12R,1.453200X0.803200*%
%ADD13C,1.727200*%
%ADD14R,1.623400X1.234400*%
%ADD15R,1.234400X1.623400*%
%ADD16R,0.738300X0.847200*%
%ADD17C,1.503200*%
%ADD18C,0.959600*%
D10*
X293300Y235096D03*
X293300Y252604D03*
X265300Y235096D03*
X265300Y252604D03*
X152700Y309946D03*
X152700Y327454D03*
X177800Y309946D03*
X177800Y327454D03*
D11*
X97300Y150201D03*
X103800Y150201D03*
X110300Y150201D03*
X110300Y169201D03*
X103800Y169201D03*
X97300Y169201D03*
D12*
X266400Y205400D03*
X266400Y195900D03*
X266400Y186400D03*
X291400Y186400D03*
X291400Y205400D03*
D11*
X56400Y150201D03*
X62900Y150201D03*
X69400Y150201D03*
X69400Y169201D03*
X62900Y169201D03*
X56400Y169201D03*
X175800Y149901D03*
X182300Y149901D03*
X188800Y149901D03*
X188800Y168901D03*
X182300Y168901D03*
X175800Y168901D03*
X15600Y150401D03*
X22100Y150401D03*
X28600Y150401D03*
X28600Y169401D03*
X22100Y169401D03*
X15600Y169401D03*
X137302Y149101D03*
X143802Y149101D03*
X150302Y149101D03*
X150302Y168101D03*
X143802Y168101D03*
X137302Y168101D03*
D13*
X221700Y126982D02*
X221700Y111742D01*
X196300Y111742D02*
X196300Y126982D01*
X170900Y126982D02*
X170900Y111742D01*
X145500Y111742D02*
X145500Y126982D01*
X120100Y126982D02*
X120100Y111742D01*
X94700Y111742D02*
X94700Y126982D01*
X69300Y126982D02*
X69300Y111742D01*
X43900Y111742D02*
X43900Y126982D01*
D14*
X225300Y150805D03*
X225300Y169195D03*
D15*
X5805Y249700D03*
X24195Y249700D03*
X24195Y211600D03*
X5805Y211600D03*
D16*
X-37975Y242600D03*
X-27825Y242600D03*
D17*
X201450Y294000D03*
X183650Y294000D03*
X165850Y294000D03*
X148050Y294000D03*
X130250Y294000D03*
X112450Y294000D03*
X94650Y294000D03*
X76850Y294000D03*
X67950Y187000D03*
X85750Y187000D03*
X103550Y187000D03*
X121350Y187000D03*
X139150Y187000D03*
X156950Y187000D03*
X174750Y187000D03*
X192550Y187000D03*
D18*
X82250Y166500D03*
X41100Y169900D03*
X122500Y169900D03*
X160900Y169900D03*
X35600Y262200D03*
X305100Y221500D03*
X82250Y146224D03*
X41100Y151200D03*
X122500Y151200D03*
X202300Y141400D03*
X1500Y165000D03*
X242600Y177000D03*
X152400Y339900D03*
X178200Y340100D03*
X279700Y269300D03*
X82250Y156362D03*
X-17500Y242200D03*
M02*
